<?xml version="1.0" encoding="UTF-8"?>
<svg width="83px" height="241px" viewBox="0 0 83 241" version="1.1" xmlns="http://www.w3.org/2000/svg" xmlns:xlink="http://www.w3.org/1999/xlink">
    <!-- Generator: Sketch 62 (91390) - https://sketch.com -->
    <title>Group 21</title>
    <desc>Created with Sketch.</desc>
    <g id="Page-1" stroke="none" stroke-width="1" fill="none" fill-rule="evenodd">
        <g id="Group-21" transform="translate(1.309578, 1.025775)" stroke="#979797">
            <path d="M5.79894426,136.059008 L9.53884146,145.824074 L11.1003902,161.601541 L13.4279515,179.027531 L12.6356072,192.617074 L16.1672447,206.139591 L20.9276942,218.340736 L21.1590939,229.17822 C19.9930524,229.011718 19.2616167,229.413343 18.9647868,230.383094 C18.6679569,231.352844 19.1501725,233.134888 20.4114336,235.729224 L26.8283854,239.043026 L31.7500167,237.783893 L32.5351797,231.256827 L30.222779,227.006255 L28.9987546,218.138062 L29.8541354,205.791694 L31.5433529,193.132537 L29.0705683,180.9282 L31.8290118,169.007926 L31.702141,160.724616 L31.5513322,149.326986 L23.8632781,141.367636 L16.4880125,138.851763 L7.3692702,135.924158" id="Path-244"></path>
            <path d="M2.95033469,128.358187 C0.462389423,129.236974 -0.452038185,130.161775 0.207051871,131.132589 C1.21297543,131.979991 1.8696717,132.544659 2.17714067,132.826594 C2.48460964,133.10853 4.59540007,132.974211 8.50951195,132.42364 L15.0158319,135.332892 L25.2038003,141.156982 C34.601818,156.552773 39.8444831,165.190629 40.9317955,167.070552 C42.5627641,169.890436 46.3098427,175.686598 49.3331989,177.629558 C51.3487697,178.924864 54.7827938,179.279411 59.6352712,178.693198 L63.1828673,173.364623 L64.6478665,163.312302 L63.595397,150.903695 L59.6352712,137.60779 C57.6415105,137.143927 55.6533353,137.301651 53.6707456,138.080963 C51.6881559,138.860274 48.4126538,139.915935 43.8442395,141.247946 L43.4364973,142.54538 L49.0778614,146.855797 L53.7297924,149.998045 L60.2768068,165.106847" id="Path-245"></path>
            <path d="M43.8442395,141.247946 L38.1661707,138.553337 L34.6449062,133.165715 L32.3239333,126.471083 C30.2044949,125.642509 29.1447758,125.228222 29.1447758,125.228222 C29.1447758,125.228222 27.4741767,125.642509 24.1329784,126.471083 L18.0990329,126.471083 L10.1564392,126.471083 L2.00558575,128.706318" id="Path-246"></path>
            <path d="M58.8461186,135.924158 L56.4714793,125.228222 L56.4714793,109.861375 L54.7503447,95.4986382 L43.8442395,93.8253793 L29.3562272,93.8253793 C27.1268112,93.8253793 24.5274217,93.8253793 21.5580588,93.8253793 C18.5886958,93.8253793 16.9093195,95.7018443 16.5199297,99.4547744 L14.4524935,106.297821 L12.5462391,114.874769 L12.5462391,118.861768 L14.4524935,125.228222" id="Path-247"></path>
            <polyline id="Path-248" points="2.00558575 128.706318 2.00558575 114.874769 2.00558575 102.320938 2.00558575 93.8253793 3.49292699 78.5593854 2.74925637 64.6626391 16.0866538 64.6626391 17.130346 77.0943862 16.0866538 90.5953592 17.130346 96.6844787"></polyline>
            <path d="M54.7503447,95.4986382 C56.0749082,93.3245453 57.4401662,89.5708173 58.8461186,84.2374542 L61.1944261,67.9317577 L62.6027723,58.8201968 L68.3933492,52.7631113 L76.4029691,43.5174981 L79.5077141,40.914651 L72.672647,33.6734376 L62.6027723,33.6734376 L54.7503447,33.6734376 C51.2745622,31.9148002 48.5879324,31.0354815 46.6904552,31.0354815 C44.7929781,31.0354815 38.4409245,31.0354815 27.6342946,31.0354815 C25.6267031,31.3700801 23.3741471,32.2493988 20.8766267,33.6734376 C18.3791063,35.0974764 14.6095527,36.4701817 9.5679659,37.7915535 C6.80633069,38.138387 4.8555252,39.1794195 3.71554942,40.914651 C2.57557364,42.6498824 2.00558575,45.3367782 2.00558575,48.9753383 L2.74925637,64.6626391" id="Path-249"></path>
            <line x1="17.130346" y1="55.8327474" x2="17.130346" y2="66.0685915" id="Path-250"></line>
            <path d="M27.6342946,31.0354815 C27.6342946,26.6524528 24.398689,25.4427912 24.398689,22.9181411 C24.398689,20.9971152 25.3353656,17.6748857 25.7832697,14.7902996 C25.92401,13.883906 26.0164918,13.0207227 26.0164918,12.2577983 C26.0164918,10.1305174 27.2347977,6.97310895 29.6714095,2.7855731 C30.5116296,0.928524368 31.7258129,5.68434189e-14 33.3139593,5.68434189e-14 C34.9021056,5.68434189e-14 37.877852,5.68434189e-14 42.2411984,5.68434189e-14 L47.979112,4.51309123 L50.4870055,12.2577983 L50.4870055,15.5177407 L43.8402498,15.5177407 L34.5316002,15.5177407 L27.6342946,15.5177407" id="Path-251"></path>
            <polyline id="Path-252" points="26.3863323 19.5548668 35.6961788 19.5548668 44.634988 19.5548668 50.4870055 19.5548668 50.4870055 15.5177407 50.4870055 24.6121462 46.6904552 31.0354815"></polyline>
            <polyline id="Path-253" points="69.9078201 33.3311257 71.4055344 24.5267677 69.9078201 26.1218295 63.6807755 24.5267677 62.6474564 17.4778554 57.6795451 12.3463686 58.8461186 10.6196484 63.6807755 15.5177407 58.8461186 8.41177647 62.6474564 8.41177647 64.5425398 12.3463686"></polyline>
            <polyline id="Path-254" points="62.5756427 7.0920005 64.5425398 7.0920005 70.0322971 11.4494954 70.0322971 5.40437887 71.4055344 5.40437887 74.9858456 12.9918938 77.8057297 18.267806 77.8057297 23.2766111 81.1338951 31.0354815 80.0287623 40.3920069"></polyline>
        </g>
    </g>
</svg>