<?xml version="1.0" encoding="UTF-8"?>
<svg width="198px" height="249px" viewBox="0 0 198 249" version="1.1" xmlns="http://www.w3.org/2000/svg" xmlns:xlink="http://www.w3.org/1999/xlink">
    <!-- Generator: Sketch 62 (91390) - https://sketch.com -->
    <title>Group 20</title>
    <desc>Created with Sketch.</desc>
    <g id="Page-1" stroke="none" stroke-width="1" fill="none" fill-rule="evenodd">
        <g id="Group-20" transform="translate(0.749487, 1.082042)" stroke="#979797">
            <path d="M8.9870826,130.816722 C16.783984,130.816722 14.3699901,130.35896 20.6291848,132.746796 C24.8019813,134.338687 29.956942,135.445724 36.0940669,136.067906 L36.0940669,146.394643 L34.3956764,161.766105 L32.5683652,181.493779 L32.5683652,202.080924 L32.5683652,215.717561 L32.5683652,225.313747 L32.5683652,230.431339 C33.7865727,233.521077 34.3956764,235.758194 34.3956764,237.142691 C34.3956764,238.527187 32.7056938,240.841221 29.3257287,244.084792 L26.4978805,246.986442 L22.5405747,245.695367 C18.9793732,247.864598 17.1987724,247.864598 17.1987724,245.695367 C17.1987724,243.526135 18.9793732,240.01289 22.5405747,235.15563 L24.4921356,227.878148 L22.5405747,217.381385 L17.1987724,198.423499 L14.9491991,176.924566 L14.9491991,163.538297 L10.6051311,143.442546 L8.9870826,132.746796" id="Path-230"></path>
            <polyline id="Path-231" points="19.0606493 88.7521308 19.0606493 96.1192965 14.6876208 94.7301289 12.8556386 100.726811 10.3304739 108.602186 8.9870826 121.710995 8.9870826 130.781561"></polyline>
            <path d="M19.0606493,90.3711136 L22.5405747,90.3711136 C23.7005499,89.5938524 23.7005499,88.3958861 22.5405747,86.7772148 C21.3805996,85.1585434 19.5866085,82.7912599 17.1586015,79.6753643 L20.2845788,65.192335 L24.7910822,51.8892107 L28.905335,45.5393977 L14.0238659,44.2464536 L14.0238659,55.5326225 L12.1138773,62.0235009 L12.1138773,76.8568582 L15.5134609,79.6753643" id="Path-232"></path>
            <polyline id="Path-233" points="14.0238659 87.2779504 14.6876208 94.7301289 12.1138773 94.7301289 8.9870826 88.7521308 3.84613504 80.8440587 2.07207372 65.8883201 4.52970994e-13 44.2464536 2.07207372 36.1459346 12.1138773 30.609817 19.0606493 30.609817 17.7312711 39.4978735"></polyline>
            <path d="M22.5405747,90.3711136 L28.905335,94.7301289 L42.0954201,94.7301289 L55.8245434,94.7301289 L61.3223585,92.5506213 C62.3817506,88.9582794 63.8658959,86.1357252 65.7747946,84.0829584 C67.6836933,82.0301917 70.3972567,80.5787436 73.9154846,79.7286141 L82.9969222,70.8816628 L82.9969222,75.0855995 L85.1988509,78.5094725 L94.8361424,78.5094725 L97.1268208,75.0855995 L97.1268208,65.0746248 L91.3010987,55.1794918 L79.450668,45.8841205" id="Path-234"></path>
            <path d="M90.5518637,40.3713581 C92.8201211,38.2606705 95.8067847,35.0068234 99.5118543,30.609817 L101.432586,26.5011694 L102.816149,20.369027 L99.5118543,11.330563 C99.8799323,9.44221685 98.0903008,7.92879961 94.1429599,6.79031126 C90.195619,5.6518229 86.4924178,6.18650138 83.0333564,8.39434668 L76.7115697,14.8525278 C78.1869958,16.0327441 79.6094834,16.6228522 80.9790326,16.6228522 C82.3485818,16.6228522 85.5395255,17.1220308 90.5518637,18.1203879 L97.1268208,21.7096157 L99.5118543,24.9475812" id="Path-235"></path>
            <polyline id="Path-236" points="97.1268208 28.7890452 89.7638591 24.9055419 81.4797682 20.9762623 74.2919705 20.9762623 74.2919705 17.6682312 71.1147285 23.2903326 69.4714564 28.7890452 65.3758877 34.8118853"></polyline>
            <polyline id="Path-237" points="69.4714564 28.7890452 62.0958829 28.7890452 51.1039895 26.2400583 42.6139057 24.1507017 33.3334817 26.6282217 24.7135429 29.3682543 17.0324834 29.8802004"></polyline>
            <path d="M85.1988509,78.5094725 L82.5195142,82.9758718 L77.2367025,87.4480965 L70.6328901,92.7386507 C69.6410476,93.0308829 68.8634162,93.5011941 68.2999957,94.1495843 C67.4548649,95.1221696 64.1642747,95.0262809 64.0106146,94.8529666 C63.9081745,94.7374237 62.1843619,94.9016058 58.8391767,95.3455128 L53.6981135,96.9011728 L49.8155149,99.3376985 L50.2610102,101.133378 L58.0464572,99.8725311 L50.9900025,102.414475 L50.9548631,104.848023 L55.9684718,103.354899 L51.0453916,106.479321 L52.0602632,108.752658 L56.6188473,108.138613 L62.395992,104.740818 L70.8216895,103.242334 L76.7775088,99.2948166 L86.3258783,94.2168851 L94.0184145,87.9215841 L97.8343079,83.7382166 L98.3804566,79.9658007 L97.2953063,76.3023762" id="Path-238"></path>
            <path d="M70.8854168,104.28758 L66.5555362,113.523269 L61.2840405,121.753616 C59.7799976,123.839343 57.2936416,126.211745 53.8249725,128.87082 C50.3563033,131.529894 47.7240297,132.585266 45.9281517,132.036933 L43.4130092,129.564673 L36.9134236,135.555631" id="Path-239"></path>
            <path d="M72.4541796,103.05413 L80.2169945,103.478184 L91.339487,106.214883 L102.214813,110.519154 L111.694691,111.192757 L118.200232,113.521482 L135.302367,114.848439 L150.982184,115.042871 L167.40856,111.93694 L176.995017,109.690733 L184.842645,101.418527 C184.602463,99.7648494 185.131276,99.1599886 186.429084,99.6039447 C187.726892,100.047901 188.306501,101.687778 188.167912,104.523577 L187.224505,109.544509 L183.59534,112.768476 L179.227129,117.84226 L175.804968,125.763882 L171.856048,126.599823 L166.620185,124.288433 L158.30834,124.472533 L145.153498,127.220833 L128.10347,130.67911 C126.657089,131.336236 124.43173,131.336236 121.427392,130.67911 C118.423054,130.021985 115.061085,129.155213 111.341484,128.078796 L96.7508318,128.260254 L57.3717493,127.325656" id="Path-240"></path>
            <path d="M105.298749,129.01956 C105.298749,132.395623 105.298749,134.083654 105.298749,134.083654 C105.298749,134.083654 110.232181,136.149284 120.099047,140.280542 L196.957186,134.083654" id="Path-241"></path>
            <polyline id="Path-242" points="120.099047 140.280542 120.099047 134.650051 105.298749 129.01956"></polyline>
            <line x1="120.099047" y1="134.650051" x2="196.957186" y2="124.8055" id="Path-243"></line>
            <path d="M24.7288021,4.21213284 C20.4557233,5.46685933 16.9998926,6.89318701 14.3613102,8.49111586 C11.7227278,10.0890447 7.63458208,13.1480832 2.09687298,17.6682312 L5.56336917,21.0926609 L13.4128376,14.737894 L25.6495136,7.29224047 L27.2908211,11.4056695 L37.3343467,5.46343112 L30.4041591,2.86943489 L22.5405747,-1.77635684e-15 L24.7288021,4.21213284 Z" id="Path-271" fill="#D8D8D8"></path>
            <path d="" id="Path-272"></path>
        </g>
    </g>
</svg>