<?xml version="1.0" encoding="UTF-8"?>
<svg width="224px" height="172px" viewBox="0 0 224 172" version="1.1" xmlns="http://www.w3.org/2000/svg" xmlns:xlink="http://www.w3.org/1999/xlink">
    <!-- Generator: Sketch 62 (91390) - https://sketch.com -->
    <title>Group 24</title>
    <desc>Created with Sketch.</desc>
    <g id="Page-1" stroke="none" stroke-width="1" fill="none" fill-rule="evenodd">
        <g id="Group-24" transform="translate(0.620736, 0.929761)" stroke="#979797">
            <path d="M71.0853602,19.9869763 L68.390662,11.489461 L62.3386243,3.65783214 L52.0459415,4.26325641e-14 L44.0604968,1.610199 L36.8110317,9.35096619 L35.1716272,19.484641 L42.8682616,19.8467897 C48.6921476,20.7269669 53.7695855,21.1778139 58.1005753,21.1993309 C62.4315652,21.2208479 66.3531126,21.2208479 69.8652175,21.1993309" id="Path-273"></path>
            <polyline id="Path-274" points="71.0853602 24.8376927 63.3926199 26.9755385 50.0476333 24.8376927 37.8721665 24.8376927 35.1716272 21.2154686"></polyline>
            <path d="M35.1716272,24.0955036 C35.1716272,26.0155269 35.6994904,28.0470575 36.7552167,30.1900954 L35.1716272,34.1205126 L38.1473476,36.1934572 L42.1783617,44.768205 C44.1833764,44.768205 46.932808,44.768205 50.4266564,44.768205 C53.9205048,44.768205 57.2927716,45.6350688 60.5434568,47.3687964 C62.7371177,49.3932814 64.5749036,50.405524 66.0568145,50.405524 C67.5387255,50.405524 69.2149074,48.5264176 71.0853602,44.768205 L73.1174171,40.0842847 L73.975411,31.7717379 L75.9354276,30.1900954 L85.9652604,32.9639731 L96.6492974,36.1934572 L109.626294,44.768205 L119.741148,54.5098764 L123.813698,63.0716439 L132.329386,77.5348783 C133.089163,80.9387304 133.089163,83.4776657 132.329386,85.1516842 C131.569609,86.8257028 130.04919,89.0961634 127.768129,91.9630661 L122.907678,97.5880539 L113.808528,102.477711 C109.143862,104.573587 105.467208,105.097556 102.778568,104.049618 C100.089927,103.00168 99.0153792,99.6495326 99.5549246,93.9931759 L99.5549246,86.7320287 L100.566734,71.9670036 L98.3380269,87.1460984 L91.9212443,87.9365951 L81.1495907,90.3613043 L78.7093052,77.1591003" id="Path-275"></path>
            <path d="M79.5361466,84.9543846 L72.9642502,78.9750362 C71.9232348,75.4586887 69.2343777,71.7443925 64.8976789,67.8321476 C60.5609802,63.9199027 55.5062577,61.3020043 49.7335115,59.9784523 L45.8731876,60.8254131 L49.1506986,52.6543509 L54.918469,45.6125697" id="Path-276"></path>
            <path d="M45.8731876,60.8254131 L41.6974438,65.2834771 L39.0429843,71.4270256 L37.1971939,76.8573097 L35.0197584,88.6479124 L33.7217342,103.721867 C33.6944757,107.080288 32.7906182,111.901799 31.0101617,118.1864 C29.2297052,124.471 26.7853093,129.567476 23.6769741,133.475826 L17.0432124,138.458887 L10.3467351,143.270757 L3.7776538,145.077076 C0.664635224,145.244091 -0.524394581,145.874903 0.210564384,146.969513 C0.94552335,148.064122 2.80996574,149.00097 5.80389154,149.780055 L10.7310583,149.35374 L17.2965811,147.881925 L27.8184984,148.191518 L34.5939755,149.624902 L39.3296924,148.85412 L40.7189499,144.024458 L41.7601813,127.744808 L46.6546095,115.822958 L53.9176078,103.850576 L55.5744681,86.86491 L61.9805679,90.9116918 L71.6904244,100.450738 L78.4424151,105.551562 L81.1746689,104.586484 L83.1859608,91.315943" id="Path-277"></path>
            <path d="M33.8061128,89.2562549 C28.3045962,99.972469 28.5273614,96.9958507 24.2492739,105.302734 C21.3972156,110.840656 18.5185868,115.690631 15.6133874,119.852658 L11.9708568,124.742816 L10.3289423,131.899058 L10.3289423,136.818396 C7.63108778,139.215909 6.78889788,140.414666 7.8023726,140.414666 C8.81584733,140.414666 10.2053421,140.414666 11.9708568,140.414666 C12.4538705,141.296711 13.1817124,140.097955 14.1543824,136.818396 C15.1270524,133.538837 17.2744836,132.511128 20.596676,133.735269" id="Path-278"></path>
            <path d="M31.2589035,113.609617 C28.0113718,119.641992 26.5815469,122.234039 26.5815469,125.950588" id="Path-279"></path>
            <path d="M9.68769181,133.456991 C6.83658243,134.71339 5.41102774,136.233839 5.41102774,138.018339" id="Path-280"></path>
            <path d="M79.5361466,105.302734 L78.1769473,121.266826 L78.1064881,138.355689 C77.4441235,142.158117 76.5696694,145.165328 75.4831258,147.377322 C73.8533104,150.695313 71.1851105,150.436251 69.2086924,154.051025 C67.2322743,157.665799 69.7624026,157.297133 65.8238007,161.58305 C63.1980661,164.440327 61.6565027,166.204893 61.1991105,166.876747 C60.4930944,170.405878 61.6515207,170.405878 64.6743894,166.876747 C67.6972581,163.347615 68.4547545,163.347615 66.9468787,166.876747 C66.69351,169.641977 67.4474479,170.333284 69.2086924,168.950669 C70.9699369,167.568054 73.0614147,165.112181 75.4831258,161.58305 L79.5361466,168.950669 L83.1859608,168.950669 L79.5361466,159.917649 C83.2385718,166.0858 85.0897844,167.627838 85.0897844,164.543762 C85.0897844,161.459686 84.4551765,158.984834 83.1859608,157.119206 L87.5359309,152.797704 L88.109569,143.758278 C87.8400682,145.340646 88.9301704,141.313318 91.3798754,131.676293 C93.8295805,122.039268 96.5245882,112.372351 99.4648985,102.675543" id="Path-281"></path>
            <path d="M132.899219,84.9543846 C134.47425,85.9737506 136.227318,88.0375705 138.158424,91.1458443 C140.08953,94.2541182 142.134984,99.1739306 144.294786,105.905282 L147.844794,118.781535 L151.400496,125.161302 L145.150261,130.198072 L139.422421,135.051221 L128.480595,137.08244 L113.883427,137.579214" id="Path-282"></path>
            <line x1="102.667593" y1="125.998984" x2="96.1291148" y2="115.991633" id="Path-283"></line>
            <polygon id="Path-284" fill="#D8D8D8" points="102.667593 122.382075 109.051629 122.382075 107.292994 137.579214 113.883427 134.914572 104.379264 149.780055 97.9283171 134.914572 102.667593 137.579214"></polygon>
            <path d="M125.181108,138.491626 L138.659468,151.903796 L150.412643,159.014489 C157.437219,161.67059 162.07472,162.526065 164.325146,161.580914 C167.700785,160.163188 167.141381,159.97245 176.025655,156.122812 C184.909928,152.273174 192.802078,145.810849 198.407504,144.815167 C202.144455,144.151379 204.875285,144.444366 206.599995,145.694129 L206.203573,150.942277 L202.302691,157.262971 C203.008708,159.347332 203.997272,159.837937 205.268386,158.734787 C206.5395,157.631637 207.388332,157.942654 207.814884,159.667838 L211.427523,159.591686 C211.532856,158.994798 212.495562,158.915798 214.315641,159.354686 C216.13572,159.793574 218.071333,158.671208 220.122481,155.987587 L222.073277,149.942324 L222.637663,130.203765 C222.87917,127.996991 222.040776,126.519244 220.122481,125.770525 C218.204186,125.021806 216.121011,125.021806 213.872957,125.770525 L210.239679,127.975402 L200.467904,130.25999 L192.213494,129.958937 C186.128849,129.462164 181.997611,129.863331 179.81978,131.162438 C177.641948,132.461546 172.07353,135.292965 163.114528,139.656695 L151.677351,125.729958" id="Path-285"></path>
        </g>
    </g>
</svg>