<?xml version="1.0" encoding="UTF-8"?>
<svg width="194px" height="193px" viewBox="0 0 194 193" version="1.1" xmlns="http://www.w3.org/2000/svg" xmlns:xlink="http://www.w3.org/1999/xlink">
    <!-- Generator: Sketch 62 (91390) - https://sketch.com -->
    <title>Group 15</title>
    <desc>Created with Sketch.</desc>
    <g id="Page-1" stroke="none" stroke-width="1" fill="none" fill-rule="evenodd">
        <g id="Group-15" transform="translate(0.593270, 0.659887)" stroke="#979797">
            <g id="Group-2">
                <polyline id="Path-102" points="0 60.2829853 42.4410586 60.2829853 46.4331353 57.9687982 53.9476731 48.7002918 70.4803481 32.687721 73.4993042 27.4064499 83.1551222 32.687721 84.9969275 35.7834478 78.7957912 41.7480474 68.6371596 51.3485352 63.2583689 57.9687982 53.9476731 63.4630907 44.3568681 70.4941807 38.2802248 73.252393 27.1809791 73.252393 17.6254471 71.876745 21.9813201 67.8161972 28.7336839 65.0206369 33.6511588 65.0206369 40.6518171 65.0206369"></polyline>
                <line x1="40.6518171" y1="65.0206369" x2="47.0265521" y2="58.8665313" id="Path-103"></line>
                <line x1="0" y1="74.3098922" x2="32.9180331" y2="74.3098922" id="Path-104"></line>
                <line x1="0" y1="80.9052565" x2="32.9180331" y2="80.9052565" id="Path-105"></line>
                <line x1="34.0931091" y1="74.3098922" x2="34.0931091" y2="81.8686942" id="Path-106"></line>
                <line x1="68.4455786" y1="68.4822349" x2="34.0931091" y2="81.8686942" id="Path-107"></line>
                <line x1="68.4455786" y1="63.0370479" x2="68.4455786" y2="68.4822349" id="Path-108"></line>
                <path d="M48.1283154,68.4822349 L57.9390582,68.4822349 C58.6772557,68.1036839 61.8430675,65.9241336 67.4364934,61.9435841 C73.0299193,57.9630346 77.8899891,54.7757824 82.0167026,52.3818274 L89.6336014,43.1741843 L84.9969275,35.7834478" id="Path-109"></path>
                <polyline id="Path-110" points="99.5515465 25.5037813 93.2764059 27.4064499 84.9969275 34.19547"></polyline>
                <path d="M70.4803481,32.687721 C67.2158641,31.7807662 63.7012413,31.3171449 59.9364797,31.2968572 L53.9393736,27.4064499 L49.2660434,21.8547522 L49.2660434,13.0738435 L53.9393736,5.06271673 L59.9364797,0.664654477 L67.0298162,0.664654477 C69.2453311,-0.221551492 71.6962301,-0.221551492 74.3825131,0.664654477 C78.4119376,1.99396343 80.2592759,0.664654477 82.6281017,0.664654477" id="Path-111"></path>
                <polyline id="Path-112" points="73.4993042 27.4064499 72.3449771 23.2857304 76.0209798 20.1319069 77.0459724 14.5186543 85.9064183 4.11864455"></polyline>
                <polyline id="Path-113" points="68.8809584 1.77635684e-15 67.4717664 5.55515584 64.291661 12.2826211 61.307978 19.0730245 55.7459059 27.4064499"></polyline>
                <polyline id="Path-114" points="77.1635492 1.66820666 72.3449771 9.05064359 68.8809584 15.7625472 64.1533354 23.2629067 60.8867766 30.7726032"></polyline>
                <path d="M82.6281017,0.664654477 L85.9064183,4.11864455 L94.4459488,1.66820666 L101.627814,1.66820666 L110.087807,4.11864455 L119.498789,9.16683709 L128.729947,16.3438605 L135.857173,21.6534884 C135.068718,21.1536719 137.201468,23.8857177 142.255424,29.8496257 C147.30938,35.8135336 151.892798,41.5221156 156.005679,46.9753716 L160.014355,53.4510843 L153.275132,54.9456923 L147.829945,59.3181643 L140.628715,65.7596414 L135.857173,68.4822349 L133.798889,73.252393 C133.871186,73.8803912 132.740466,75.4734409 130.40673,78.0315423 C128.072993,80.5896436 124.437012,80.9612783 119.498789,79.1464465 L110.087807,71.6381333 L101.627814,61.6904483 L94.4459488,52.1328414 L89.6336014,43.1741843" id="Path-115"></path>
                <path d="M160.014355,52.1328414 C164.887105,59.4023124 168.422707,65.1776365 170.621162,69.4588136 C170.621162,71.157913 170.621162,73.6510012 170.621162,76.9380784 C170.621162,80.2251556 169.161596,82.4406706 166.242465,83.5846232 L165.317758,88.3686139 L164.166198,94.0869939 L151.332349,93.0094375 L143.480989,95.5719192 L130.40673,97.0831263 C129.034263,94.2824941 129.034263,91.0465974 130.40673,87.3754361" id="Path-116"></path>
                <path d="M129.377379,92.5854696 C125.290274,90.7079302 123.812472,88.5890126 124.943976,86.2287169 L128.388975,80.2762195" id="Path-117"></path>
                <path d="M123.192082,88.6086088 L115.591091,94.9660531 L106.360624,106.956807 L104.941403,114.691974 L107.70169,132.080193 L112.38747,157.209112 L110.906003,168.684603 C110.279388,171.120978 108.764262,172.701579 106.360624,173.426405 C103.956986,174.151231 100.551641,175.309016 96.1445871,176.89976 L87.823611,181.73839 L89.4454786,184.196435 L100.741147,184.196435 L117.616869,184.196435" id="Path-118"></path>
                <path d="M117.616869,184.196435 C122.367431,184.196435 125.672952,183.129253 127.533431,180.99489 L126.430976,174.730815 L126.430976,165.447093 L126.430976,151.745251 L127.533431,134.951832 L124.863747,124.995156 L124.863747,118.105158 L129.377379,112.395769" id="Path-119"></path>
                <path d="M129.377379,97.0831263 C129.377379,108.358968 129.720496,119.514696 130.40673,130.550312 L134.004302,138.248823 L142.913854,145.665841 L152.093832,155.538831 L161.921173,166.92856 L167.915513,176.328476 L165.715444,179.872377 L158.735535,183.184584 L148.646446,187.465069 L147.369321,189.779948 L155.281545,191.740022 C154.084567,191.740022 157.974744,191.740022 166.952075,191.740022 C175.929406,191.740022 182.777215,190.78327 187.495501,188.869766 L187.495501,183.184584 L183.951599,176.328476 C183.852005,175.995111 181.965244,172.861806 178.291316,166.92856 C174.617388,160.995314 172.368444,155.40673 171.544485,150.162806 L166.952075,142.263032" id="Path-120"></path>
                <polyline id="Path-121" points="166.952075 142.263032 158.43644 136.402522 152.028819 127.825298 155.677156 116.916942 160.014355 104.053353 164.166198 94.0869939"></polyline>
                <line x1="146.964027" y1="69.617888" x2="145.445212" y2="83.153739" id="Path-122"></line>
                <line x1="142.570806" y1="81.8686942" x2="149.99927" y2="81.8686942" id="Path-123"></line>
                <polyline id="Path-124" points="142.570806 81.8686942 145.445212 88.6086088 148.925484 81.8686942"></polyline>
                <line x1="170.621162" y1="115.044705" x2="158.43644" y2="128.086042" id="Path-125"></line>
                <polyline id="Path-126" points="158.43644 128.086042 175.982662 131.949475 170.621162 126.396394 192.323064 120.515482 187.495501 115.044705 168.938216 123.49709 170.621162 115.044705"></polyline>
            </g>
            <polygon id="Path-323" fill="#D8D8D8" points="142.570806 81.8686942 145.445212 88.6086088 149.344972 81.8686942"></polygon>
            <polygon id="Path-324" fill="#D8D8D8" points="170.621162 115.044705 157.953294 128.086042 177.257818 132.807502 170.621162 126.396394 192.323064 120.515482 187.495501 115.044705 168.757115 123.926103"></polygon>
        </g>
    </g>
</svg>