<?xml version="1.0" encoding="UTF-8"?>
<svg width="186px" height="217px" viewBox="0 0 186 217" version="1.1" xmlns="http://www.w3.org/2000/svg" xmlns:xlink="http://www.w3.org/1999/xlink">
    <!-- Generator: Sketch 62 (91390) - https://sketch.com -->
    <title>Group 19</title>
    <desc>Created with Sketch.</desc>
    <g id="Page-1" stroke="none" stroke-width="1" fill="none" fill-rule="evenodd">
        <g id="Group-19" transform="translate(0.964694, 1.005967)" stroke="#979797">
            <path d="M98.4679738,26.7043101 C96.9042747,24.6944505 93.896565,23.5542031 89.4448448,23.283568 L85.6125397,21.1752592 L83.1259295,23.283568 L72.0169332,29.7796118 L59.8387547,36.9689409 C59.0174988,38.4239051 58.8121848,39.6547204 59.2228128,40.6613868 C59.6334408,41.6680531 60.7994693,42.2803884 62.7208983,42.4983926 L77.9347049,32.7703567 L89.4448448,24.1672063" id="Path-213"></path>
            <polyline id="Path-214" points="85.0378742 21.1752592 80.3772334 16.4825589 74.8365609 13.663332 67.7321893 12.8766735 60.9055326 17.0259664 56.9574127 22.0885525 55.9030579 28.7184444 57.5008202 34.4202155 59.0174988 37.7263451"></polyline>
            <path d="M63.0126392,43.3207172 L64.2381112,47.7705673 L65.8446898,49.0926184 C67.3923592,48.6496638 68.4561983,48.6496638 69.0362069,49.0926184 C69.6162156,49.535573 71.9268997,50.689312 75.9682591,52.5538355 L80.911023,49.0926184 C81.8046799,48.2601416 83.1802969,48.0520224 85.0378742,48.4682608 C86.8954516,48.8844992 88.2251168,49.0926184 89.0268699,49.0926184 L90.5953779,38.5883433 L93.8578266,31.1677855 L98.4679738,27.2176619" id="Path-215"></path>
            <path d="M88.6978599,50.0163309 C87.7582512,53.5781346 87.1627471,56.8324348 86.9113477,59.7792315 L86.9113477,64.5204217 L97.3719418,66.4011085 L110.264645,67.1408801 L110.264645,63.6451991 L109.248361,55.4588214 L111.218013,67.1408801 L116.91217,68.6889502 L126.541623,71.6945226 L136.62111,69.2688253 L152.125856,67.1408801 L167.317221,65.4244979 L167.317221,58.3401634 L158.0284,46.1006713 L149.337086,35.2221023 L140.604095,30.2524885 L128.757731,24.6336712 L120.286025,22.1674988 C115.010911,21.6176795 111.33169,21.6176795 109.248361,22.1674988 C107.165032,22.7173182 103.571569,24.2295886 98.4679738,26.7043101" id="Path-216"></path>
            <path d="M118.344024,5.94862884 C127.918576,5.94862884 136.880792,7.6581984 145.230673,11.0773375 L142.919187,16.4316645 C141.350679,14.9115128 137.19297,13.1267371 130.446062,11.0773375 C123.699153,9.02793792 119.66514,8.51458616 118.344024,9.53728225 L120.409454,14.0985389 L107.105187,10.4096997 L120.409454,2.84217094e-14 L118.344024,5.38758866" id="Path-217" fill="#D8D8D8"></path>
            <path d="M86.9113477,64.5204217 L75.8482663,66.2855689 L60.3786643,64.5204217 L54.9561406,64.5204217 L49.1598988,60.152814 L44.5103555,60.152814 L36.3596333,57.7644603 L26.0837705,50.0829683 L19.9487944,45.1657694 C19.2476231,40.12807 18.0962971,37.1862653 16.4948162,36.3403553 C14.8933354,35.4944453 13.5855993,35.4944453 12.5716079,36.3403553 L11.6514725,43.4232318 L14.9153872,52.5538355 L15.7218359,60.152814 L17.9025067,68.6844733 L22.6803248,68.6844733 L30.6544609,69.7384365 L34.8397718,67.5683164 L40.5232874,66.2855689 L46.1062933,62.5106261" id="Path-218"></path>
            <polyline id="Path-219" points="1.35617418 73.6855228 25.3513272 73.6855228 29.3245127 70.6197007"></polyline>
            <line x1="7.45769359" y1="62.1802215" x2="15.3403435" y2="62.1802215" id="Path-220"></line>
            <polyline id="Path-221" points="-4.54747351e-13 79.4451147 24.7371632 79.4451147 24.7371632 73.6855228"></polyline>
            <line x1="24.7371632" y1="79.4451147" x2="31.7073135" y2="73.6855228" id="Path-222"></line>
            <polyline id="Path-223" points="31.7073135 70.6197007 37.7017981 70.6197007 36.5456594 72.1526117 36.5456594 74.7950161 40.6371243 74.7950161 40.6371243 76.5653188 44.0033648 76.5653188 44.7896723 77.9857812 53.4007399 76.5653188 61.4220767 83.3638807 77.5297207 92.5809954 84.9868707 94.5837568 94.3903541 87.6302656 99.6518402 77.9857812 103.712763 68.5045555"></polyline>
            <polyline id="Path-224" points="87.7283965 66.0040308 84.1494753 73.6855228 81.9987908 78.3905963 74.5194287 75.616863 63.0126392 69.7384365 56.1000627 66.0040308"></polyline>
            <polyline id="Path-225" points="49.2814101 78.3905963 56.1000627 81.5441561 59.0174988 82.490946"></polyline>
            <polyline id="Path-226" points="94.3903541 87.6302656 108.608305 93.4076272 120.704448 97.7611946 133.339234 101.651085 132.610122 96.7560981 128.628052 90.1796569 127.114284 72.1973135"></polyline>
            <path d="M133.339234,102.501807 L139.084388,111.595432 C140.439324,112.166283 141.564366,112.166283 142.459513,111.595432 C143.802233,110.739157 145.394839,110.158866 148.828827,109.128226 C151.118151,108.441132 153.079478,107.819286 154.712806,107.262689 L158.847029,103.813986" id="Path-227"></path>
            <polyline id="Path-228" points="153.706044 108.057604 157.364373 111.12287 164.763772 114.005443 172.800102 113.068093 174.864714 100.266162 176.187999 86.1975866 176.187999 78.60883 167.317221 66.9963554 167.317221 63.6700966"></polyline>
            <path d="M142.634433,112.02357 L144.859528,123.522208 L149.842808,138.301014 L154.639506,148.112645 L162.729145,165.06046 L166.20478,177.842401 L169.587124,193.066004 L168.132233,200.431529 L163.544884,203.498462 L158.809824,205.17714 L151.594786,208.166886 L144.859528,210.007156 C143.930323,210.829374 143.930323,211.654922 144.859528,212.483803 C145.788733,213.312684 148.033819,213.981082 151.594786,214.488999 L165.257435,215.354159 L178.134887,215.354159 L182.577858,213.601626 C183.630711,211.056862 183.893924,208.736811 183.367498,206.641471 C182.841072,204.546132 182.577858,198.256227 182.577858,187.771755 L182.577858,167.64317 L177.279167,153.202542 L170.982598,140.225136 L170.982598,121.714145 L172.800102,113.068093" id="Path-229"></path>
        </g>
    </g>
</svg>