<?xml version="1.0" encoding="UTF-8"?>
<svg width="182px" height="158px" viewBox="0 0 182 158" version="1.1" xmlns="http://www.w3.org/2000/svg" xmlns:xlink="http://www.w3.org/1999/xlink">
    <!-- Generator: Sketch 62 (91390) - https://sketch.com -->
    <title>Group 9</title>
    <desc>Created with Sketch.</desc>
    <g id="Page-1" stroke="none" stroke-width="1" fill="none" fill-rule="evenodd">
        <g id="Group-9" transform="translate(1.000000, 1.000000)" stroke="#979797">
            <path d="M100.203565,23.6543683 L97.8329677,13.5055778 L93.4974531,6.328684 L87.4818402,1.63410222 L79.8875183,-1.77635684e-15 L71.2822687,1.63410222 L64.1414795,7.98306412 L60.4538687,16.012619 C59.8831199,17.0168821 59.5977455,19.5641319 59.5977455,23.6543683 C59.5977455,27.7446047 61.6761481,30.3931142 65.8329533,31.5998967 L75.8260027,31.5998967 L85.9605029,29.8831991 L94.2279522,27.6887344 L100.203565,23.6543683 Z" id="Path"></path>
            <path d="M59.5977455,26.3207178 C58.6844156,28.435225 58.2277506,30.1949513 58.2277506,31.5998967 C58.2277506,33.0048421 58.6844156,34.747258 59.5977455,36.8271444 L66.2592838,37.6540872 L80.6496707,37.6540872 L94.0405053,35.0975877 L101.784686,28.0369208 L100.203565,23.6543683" id="Path-70"></path>
            <path d="M101.784686,28.8440803 C101.784686,31.6810083 100.852727,34.6176773 98.9888081,37.6540872 L96.8255021,41.3891779 L96.8255021,47.8543669 L93.496464,53.2294948 L88.9952641,57.1653863 L82.448469,57.1653863 L76.8542408,56.3270681 L72.5147696,51.7590996 L67.2687277,46.7529305 L61.2704252,37.6540872" id="Path-71"></path>
            <path d="M58.9162101,35.4724816 L53.9031169,40.5399789 L48.8232549,46.2989033 L43.4144953,53.06925 L39.6828666,62.4974856 L36.5106113,70.3465177 L33.7206686,78.294961 L38.4567954,80.761941 L44.52978,83.7432873 L50.8020815,83.7432873 L56.1717691,75.5876137 C57.5470395,76.1342928 58.4618532,76.4076323 58.9162101,76.4076323 C59.5977455,76.4076323 60.4776086,77.7805947 61.2704252,80.761941" id="Path-72"></path>
            <path d="M61.2704252,80.761941 C61.9658089,84.0759768 62.4704484,87.8369508 62.7843437,92.0448629 L64.6874991,97.6796469 C64.5359918,99.8722982 64.2133589,100.968624 63.7196002,100.968624 C63.2258415,100.968624 62.4094498,101.224653 61.2704252,101.736711 L57.0986176,99.7568955 L47.4955469,96.3922474 C47.3694282,96.000208 47.8889877,93.7940381 49.0542252,89.7737378 C50.2194627,85.7534375 50.4728541,83.7432873 49.8143993,83.7432873" id="Path-73"></path>
            <path d="M33.7206686,78.294961 C31.7865194,83.9994813 30.0820215,90.18622 28.607175,96.8551771 L26.9435305,106.688476 L25.407223,113.605714 L27.7797377,120.550154 L33.7206686,125.463836 L41.9920746,132.69365 L46.407223,138.097464 L53.8773986,142.176784 L59.7579904,147.51383 C61.4244054,149.269599 63.0675749,151.03592 64.6874991,152.812792 C66.3074233,154.589664 68.4138522,155.372424 71.006786,155.161072 L78.6846924,155.918278 L87.9333944,153.512627 L95.945639,148.773038 L104.094883,141.212842 L114.954442,136.859028 L125.798174,130.929967 L135.215529,122.748575 L142.551184,117.10662 L147.218563,112.001287 C147.218563,105.915938 147.218563,101.870249 147.218563,99.86422 C147.218563,97.8581914 150.336744,94.980213 156.573106,91.2302847" id="Path-74"></path>
            <path d="M147.214607,99.1000893 C146.118611,92.9778113 146.118611,89.4389051 147.214607,88.4833707 L153.603135,86.2196644 L163.969595,81.5043101 L171.55996,80.517617 L176.360877,84.379321 C178.099172,84.3133766 179.231437,86.1232207 179.757673,89.8088532 C180.28391,93.4944856 179.917259,96.9046354 178.657721,100.039302 L173.352329,106.646437 L166.90445,114.077546 L159.11279,120.005123 L149.307682,125.648315 L139.554505,129.969982 L129.038187,134.856462 C125.011622,136.297017 122.225142,137.480224 120.678745,138.406084 C119.132349,139.331943 116.600414,141.064962 113.08294,143.60514 C109.9275,144.853468 107.373968,145.797791 105.422344,146.438112 C103.470719,147.078432 100.311818,147.85674 95.945639,148.773038" id="Path-75"></path>
            <path d="M81.572068,151.341902 C76.6456916,152.64826 73.0922776,152.97485 70.9118261,152.321671 C68.7313745,151.668492 67.2469661,150.712627 66.4586008,149.454079 L68.8800791,146.874828 L79.15603,146.874828 L64.6874991,145.894565 L64.6874991,143.017576 L77.3601992,141.721768 L67.1693166,139.043107 L67.1693166,135.076056 L83.8402256,135.076056 L76.5985414,133.067555 L79.9310416,128.600481 L87.8755282,127.429803 L95.2284936,131.321677 L101.860852,128.600481 L115.463862,117.10662 L128.529756,103.912876 L125.381735,97.7394915 L121.536352,89.852871 L117.185011,81.6220208 L121.536352,86.0609032 L131.279637,82.5172161 L140.700454,79.3677116 L146.074593,91.2493261" id="Path-76"></path>
            <polyline id="Path-77" points="140.700454 79.3677116 137.967961 70.0542192 132.536373 60.4058941 126.257642 51.4826277 117.674648 41.8896959 110.645635 34.4749077 101.784686 32.2690675"></polyline>
            <polyline id="Path-78" points="123.399941 94.6340049 110.741089 97.7963685 98.5891851 99.7910217 86.5277896 101.013136 75.6865303 101.013136 64.6874991 97.8235706"></polyline>
            <path d="M125.31645,99.2825904 C121.562565,104.082024 118.474389,108.602842 116.051921,112.845045 L113.723425,117.10662 L113.723425,118.021351" id="Path-79"></path>
            <path d="M62.5434818,101.736711 C65.8746631,105.685132 68.6586708,109.669328 70.8955048,113.689298 L73.6963283,119.503122 L78.3642027,130.916613" id="Path-80"></path>
            <path d="M47.4955469,96.3922474 C45.1513884,100.957248 43.6673921,104.435321 43.0435581,106.826465 L45.2695525,113.398484 L49.8366555,119.737059 L56.0822851,126.850647 L61.2704252,132.520051 L66.5416907,130.916613 C68.5041961,129.576953 70.1462116,128.907123 71.4677374,128.907123 C72.7892631,128.907123 73.8784997,130.111432 74.7354472,132.520051 L73.6691263,134.695227" id="Path-81"></path>
            <path d="M29.9786537,90.4562623 C23.6743691,89.8746327 17.7650915,89.0005397 12.2508208,87.8339833 L6.42463311,90.4562623 L2.79538309,96.3922474 C0.931794363,98.1697787 0,100.192788 0,102.461275 C0,104.729763 1.3513656,107.633624 4.05409681,111.17286 L9.32338404,114.549873 L14.9893268,120.217794 L20.7274787,127.304179 L29.9786537,132.018544 L40.3416512,137.144897 L47.4770711,138.73053" id="Path-82"></path>
            <path d="M26.9435305,101.736711 C24.8068672,102.286688 24.8068672,103.937276 26.9435305,106.688476" id="Path-83"></path>
            <path d="M82.9465513,56.5075662 C85.1873169,55.1371615 86.3068729,55.1371615 86.3052194,56.5075662" id="Path-84"></path>
        </g>
    </g>
</svg>