<?xml version="1.0" encoding="UTF-8"?>
<svg width="214px" height="239px" viewBox="0 0 214 239" version="1.1" xmlns="http://www.w3.org/2000/svg" xmlns:xlink="http://www.w3.org/1999/xlink">
    <!-- Generator: Sketch 62 (91390) - https://sketch.com -->
    <title>Group 18</title>
    <desc>Created with Sketch.</desc>
    <g id="Page-1" stroke="none" stroke-width="1" fill="none" fill-rule="evenodd">
        <g id="Group-18" transform="translate(1.000000, 1.000000)" stroke="#979797">
            <g id="Group-17">
                <path d="M85.363428,40.051699 C88.8922092,38.0106893 90.0938455,40.051699 93.8936675,40.051699 C96.4268822,40.051699 99.2560761,38.9848175 102.381249,36.8510545 L105.744649,33.674692 C108.217487,34.7492301 109.453906,34.7492301 109.453906,33.674692 C109.453906,32.062885 109.453906,30.1426295 109.453906,30.1426295 C109.453906,30.1426295 110.489505,28.2875638 112.560703,24.5774325 L114.794657,23.5339581 L113.903438,20.6988577 L114.794657,13.3026584 L112.560703,6.90202557 L105.744649,1.62558879 L97.5589535,-7.10542736e-15 L88.8587393,2.75962894 L82.3019134,10.3369597 L78.9312941,15.211101 L85.363428,16.3477662 L96.8629757,17.8086304 L105.744649,17.8086304 L112.560703,20.0258495" id="Path-197"></path>
                <path d="M112.560703,24.5774325 L103.223248,23.0397843 L94.4862822,23.0397843 C87.9874272,21.6016709 84.7379996,20.8826142 84.7379996,20.8826142 C84.7379996,20.8826142 82.2043474,20.597026 77.1370431,20.0258495 L78.9312941,15.211101 L75.2804461,23.0397843 L73.8136754,29.8886518 L84.7379996,40.051699" id="Path-198"></path>
                <path d="M73.8136754,29.8886518 C71.2673353,29.1676263 69.2473263,29.1676263 67.7536484,29.8886518 C66.2599705,30.6096773 63.5014354,32.4717432 59.478043,35.4748495 L54.7528757,41.1929582 L47.7117202,58.9234921 L45.7107431,72.1736486 L45.7107431,97.6560819 L44.1114052,112.155783 L51.8685548,113.006313 L70.1437955,105.458514 L65.1594003,97.6560819 L54.7528757,82.6694264 L49.8813595,72.1736486 L49.8813595,66.4824472 L53.2710107,58.9234921 L54.7528757,53.9318779 L59.478043,44.9455285" id="Path-199"></path>
                <path d="M54.7528757,53.9318759 C57.4492836,54.0920079 59.4071654,54.6664664 60.6265211,55.6552514 C61.8458768,56.6440364 63.5294364,59.0435901 65.6771999,62.8539125" id="Path-200"></path>
                <path d="M75.0533756,62.8539125 L64.6645703,69.0163181 L64.6645703,77.5833089 L69.8589729,88.5949174 L75.0533756,97.4198236 C75.6413964,98.0284076 76.9340359,98.0284076 78.9312941,97.4198236 C80.9285523,96.8112395 83.4105776,96.4367263 86.3773702,96.2962838 L89.8280548,97.4198236 C91.6831205,98.9865665 92.1468869,100.303051 91.2193541,101.369276 C90.2918212,102.435501 89.8280548,103.835988 89.8280548,105.570737 L84.9736017,108.170235 L69.8589729,106.509864" id="Path-201"></path>
                <path d="M85.2781125,41.0945172 L88.2090288,52.834589 L89.698769,66.8092712 L91.6831205,77.4159592 L93.1871893,91.7725924 L93.1871893,96.669047 L99.9530382,90.6864602 L121.472237,80.6736995 L129.765562,78.4154633 L137.11976,80.6736995 L141.735986,89.1534059 L146.481498,99.8906923 L152.315767,117.455189 L158.017469,130.456618 L162.911954,130.456618 L172.118155,126.346379 L179.201312,123.853197 L185.885455,126.346379 L185.885455,129.38558 L183.531403,129.38558 L185.885455,131.33143 L184.419341,132.205586 C182.9121,131.453935 181.665618,131.453935 180.679896,132.205586 C179.694173,132.957238 178.130931,134.764396 175.990167,137.627059 L169.415622,144.85919 L162.911954,152.286891 L158.017469,152.286891 L152.315767,147.579443 L145.016696,133.736672 L137.11976,121.264199 L130.684345,111.590075 L126.075994,101.661974 L129.765562,98.4797048 L119.062402,107.164168 L105.933656,117.455189 C102.003236,121.902971 98.8962196,124.496782 96.6126075,125.236621 C94.3289954,125.976459 93.1871893,125.153055 93.1871893,122.766408 L94.983081,111.590075 L93.1871893,98.4797048" id="Path-202"></path>
                <path d="M61.8268449,118.813675 L60.6593348,124.696508 C73.0261475,122.735563 79.2095539,121.755091 79.2095539,121.755091 C79.2095539,121.755091 78.8643178,123.722161 78.1738454,127.6563 L89.6928625,118.813675 L78.1738454,113.006313 L79.2095539,118.813675 L62.8053482,118.813675" id="Path-203" fill="#D8D8D8"></path>
                <path d="M50.5763528,113.006313 C49.1850536,127.04006 48.8372288,134.379163 49.5328784,135.023623 C50.228528,135.668084 52.4150117,136.060754 56.0923294,136.201634 C59.7403335,138.095201 62.0810413,139.041984 63.1144529,139.041984 C64.1478645,139.041984 68.7266828,139.963173 76.8509079,141.805551 L80.7143884,135.023623 L91.6831205,133.825925 L92.9827602,125.961803" id="Path-204"></path>
                <path d="M63.342836,131.422652 C67.6969901,133.427348 73.4875076,134.627672 80.7143884,135.023623" id="Path-205"></path>
                <path d="M50.9248339,136.431986 C48.398182,142.703333 46.1270391,149.199782 44.1114052,155.921332 L40.8615402,166.937534 L30.8625613,176.994922 L20.536102,188.511861 L16.087882,195.887715 L11.4952819,207.635663 L5.02705295,219.07188 L0,228.915978 L1.32829702,234.263949 L8.13516298,235.543682 L17.9044463,234.263949 L25.462417,234.263949 L30.8625613,236.69216 L39.4518653,236.69216 L37.8164324,233.360261 L28.1803726,229.790134 L20.536102,222.913047 L21.96284,216.446131 L32.6023416,201.483757 L46.3342027,186.562073 L57.0478632,176.994922 L65.0032073,163.824174 L77.0674781,143.158786" id="Path-206"></path>
                <line x1="201.652572" y1="129.712738" x2="186.687356" y2="129.712738" id="Path-207"></line>
                <line x1="173.760889" y1="141.256136" x2="198.146287" y2="152.286891" id="Path-208"></line>
                <line x1="178.585223" y1="135.013488" x2="198.146287" y2="142.137265" id="Path-209"></line>
            </g>
            <line x1="197.964694" y1="142.011489" x2="212.880081" y2="142.011489" id="Path-210"></line>
            <line x1="197.964694" y1="152.161115" x2="197.964694" y2="142.011489" id="Path-211"></line>
            <line x1="197.964694" y1="152.161115" x2="212.057289" y2="152.161115" id="Path-212"></line>
        </g>
    </g>
</svg>