<?xml version="1.0" encoding="UTF-8"?>
<svg width="187px" height="144px" viewBox="0 0 187 144" version="1.1" xmlns="http://www.w3.org/2000/svg" xmlns:xlink="http://www.w3.org/1999/xlink">
    <!-- Generator: Sketch 62 (91390) - https://sketch.com -->
    <title>Group 25</title>
    <desc>Created with Sketch.</desc>
    <g id="Page-1" stroke="none" stroke-width="1" fill="none" fill-rule="evenodd">
        <g id="Group-25" transform="translate(0.745380, 1.004458)" stroke="#979797">
            <path d="M167.229688,141.173819 L168.759263,119.066053 C169.677857,115.178825 170.243934,109.512044 170.457494,102.065709 C170.671055,94.6193734 168.87064,85.3542371 165.056249,74.2702998 L160.872724,62.3625277 L165.403109,54.7878439 L171.693246,51.168628 L177.322549,50.6170476 L183.003827,40.244154 L185.349104,39.8145577 L184.350956,26.9563702 L185.224999,23.7837222 L183.29871,21.2613027 L181.675791,10.9870571 L174.539189,1.33652172 L165.255667,0 L154.319525,3.07824288 L147.929678,11.7242655 L143.804493,27.5121935 L153.636414,28.4010865 L163.582893,28.0064944 L181.675791,23.7837222" id="Path-300"></path>
            <polyline id="Path-301" points="181.453037 28.4382121 173.725608 31.1632314 164.930022 33.0555765 151.80347 33.2528725 143.434298 32.9675358 140.988251 36.2133742 142.203849 45.8893672 160.144002 62.5831599 168.834575 85.8863707 171.330476 100.060926 169.144309 121.55559 167.31985 140.285987"></polyline>
            <path d="M140.988251,39.3701112 L138.43401,46.1916757 L127.243292,47.0126819 C124.395581,48.9672565 118.797394,52.0999502 110.44873,56.4107632 C102.100066,60.7215761 97.9773557,63.8673522 98.0806002,65.8480915 L102.118805,71.3437415 L107.787354,82.9704198 L118.388305,85.0441499 L125.083643,88.7354956" id="Path-302"></path>
            <polyline id="Path-303" points="113.050704 84.3620995 113.699872 98.6374244 113.397563 112.476789 112.714452 131.721641 115.072458 142.013919"></polyline>
            <polyline id="Path-304" points="111.150934 54.9543788 91.3152545 53.9371372 76.4056122 53.5329985 68.2326759 51.6448964 61.7781245 45.2370173 53.6486781 44.0277833 54.2957244 47.7647405 50.1885719 48.3481428 49.1702696 50.7411532 53.6868645 50.520521"></polyline>
            <polyline id="Path-305" points="49.1702696 50.7411532 49.1702696 54.9543788 52.697202 54.2426279"></polyline>
            <polyline id="Path-306" points="49.5024147 55.6008038 50.5162482 59.1323207 54.3996806 57.2392778"></polyline>
            <polyline id="Path-307" points="50.9337358 59.1323207 54.0804071 61.4883392 63.683143 61.8564792 73.7785606 63.3552861 85.2469698 64.0825977 101.065699 62.3960318"></polyline>
            <path d="M70.4213698,22.0519561 C69.964658,41.1780875 69.964658,51.0606252 70.4213698,51.6995693" id="Path-308"></path>
            <line x1="59.5128909" y1="22.0519561" x2="59.5128909" y2="44.0277833" id="Path-309"></line>
            <line x1="54.3996806" y1="23.1096465" x2="53.6569364" y2="43.3739434" id="Path-310"></line>
            <path d="M52.697202,61.6074592 C52.697202,61.6074592 52.697202,63.2901353 52.697202,66.6554875 L70.7501029,64.0825977" id="Path-311"></path>
            <polyline id="Path-312" points="51.9510477 66.6554875 29.5548253 67.2783851 17.597025 59.1323207 17.597025 26.7768912"></polyline>
            <line x1="16.6268727" y1="59.1323207" x2="15.260114" y2="112.898533" id="Path-313"></line>
            <line x1="8.50748707" y1="28.4382121" x2="6.37829592" y2="112.898533" id="Path-314"></line>
            <line x1="2.83428277" y1="30.1993107" x2="-4.54747351e-13" y2="111.182795" id="Path-315"></line>
            <line x1="52.697202" y1="82.158069" x2="50.9337358" y2="118.030765" id="Path-316"></line>
            <line x1="57.9589952" y1="84.3620995" x2="57.9589952" y2="116.193816" id="Path-317"></line>
            <line x1="69.7501029" y1="86.0154267" x2="69.7501029" y2="116.193816" id="Path-318"></line>
            <polyline id="Path-319" points="107.787354 82.9704198 89.4668287 83.5421514 70.9891735 83.5729431 52.6169963 81.8034016 38.2058141 81.4371767 16.5684038 82.1250769"></polyline>
            <line x1="143.804493" y1="27.5121935" x2="143.434298" y2="32.9675358" id="Path-320"></line>
            <line x1="183.29871" y1="21.2613027" x2="181.453037" y2="23.5361103" id="Path-321"></line>
        </g>
    </g>
</svg>