<?xml version="1.0" encoding="UTF-8"?>
<svg width="287px" height="153px" viewBox="0 0 287 153" version="1.1" xmlns="http://www.w3.org/2000/svg" xmlns:xlink="http://www.w3.org/1999/xlink">
    <!-- Generator: Sketch 62 (91390) - https://sketch.com -->
    <title>Group 22</title>
    <desc>Created with Sketch.</desc>
    <g id="Page-1" stroke="none" stroke-width="1" fill="none" fill-rule="evenodd">
        <g id="Group-22" transform="translate(1.000000, 1.000000)" stroke="#979797">
            <path d="M56.5861849,79.8388501 L54.0634664,87.8793442 L49.9655697,95.1247347 L45.6858942,103.749211 L39.8131488,118.465427 L33.5145829,132.27561 L28.1420872,136.719173 L15.8863274,138.335144 L5.54497092,142.167529 L0.709939487,143.204528 L4.54747351e-13,145.534732 L6.91260636,146.272583 C11.5043118,146.550261 14.4535664,146.361802 15.7603704,145.707207 C17.0671743,145.052613 19.7189509,143.835744 23.7157003,142.056601 L19.2120217,145.502527 L21.5873132,146.26972 L34.8278278,145.003709 L42.3437396,135.928364 L54.1650908,117.696087 L63.076549,106.123071 L69.8868153,88.4697676 L69.0544971,85.8976683 L57.9810156,80.2832779" id="Path-255"></path>
            <polyline id="Path-256" points="56.5861849 79.8388501 53.1288082 75.4002969 58.5957716 67.449261 61.7525691 57.3490835 63.597553 53.1080539 76.5947415 44.9086822 82.7902517 41.2222928 84.6402453 43.8745466 98.1477028 42.8218037"></polyline>
            <polygon id="Path-257" fill="#D8D8D8" points="77.3884138 42.4095807 77.3884138 47.5838373 58.065464 47.5838373 53.1288082 44.996709 51.3310582 41.2222928 53.1288082 37.1959626 62.2506718 30.0729508 65.9105816 28.2594562 59.0938743 25.014632 75.6382555 25.014632 67.8679249 37.1959626 67.8679249 31.3733138 64.359736 33.0501164 59.0938743 37.1959626 58.065464 41.2222928 60.909516 42.4095807"></polygon>
            <path d="M82.7902517,41.2222928 C83.8561152,40.4345844 83.8561152,39.4171476 82.7902517,38.1699824 C81.7243883,36.9228172 81.1427913,35.0255898 81.0454609,32.4783002 L79.3686583,30.8501628 L79.3686583,21.5479516 L85.0202633,21.5479516 L98.1477028,25.014632 C107.312983,25.3719873 112.320729,26.0688062 113.170938,27.1050889 C114.021148,28.1413715 115.017831,29.9324419 116.160986,32.4783002 L114.30312,38.1699824 L113.170938,43.8981635 L110.780618,47.5838373 L105.930558,49.7909475 L98.1477028,47.5838373 L94.0784327,43.8981635" id="Path-258"></path>
            <path d="M79.3686583,20.626891 L78.3803252,16.9555306 L79.3686583,15.513466 C79.9167525,15.3277643 80.3206724,15.2003717 80.5804179,15.1312882 C82.6687702,14.5758569 84.3462422,14.7032495 85.6128337,15.513466 C87.1157298,16.4748424 90.7966325,17.7138967 96.6555417,19.230629 L104.527139,20.626891 L114.488477,21.5479516 L114.488477,11.7698234 L110.841449,4.18449212 L103.422868,1.21018919 L97.7648221,0 L88.2887044,4.18449212 L81.664511,9.67077852 L80.5804179,13.5367998" id="Path-259"></path>
            <polyline id="Path-260" points="116.160986 38.8863629 124.494187 41.2222928 138.921274 47.5838373 153.514395 59.5483215 156.892333 64.3074925 151.307285 68.9986753 145.942661 74.4477471 144.044002 79.8388501 136.526659 77.285358 132.154663 74.4477471 132.154663 78.6193572 129.293435 83.2976581 126.821529 92.9340847 126.172421 101.298059 124.333162 105.107543 118.186317 105.683653 108.155559 106.211098 101.076203 112.055217 90.2524887 117.668892 88.7259756 119.347841 84.341813 119.027224 81.2050542 114.391863 79.46742 106.347074 70.5352076 90.5781161 71.3567908 85.2464133 74.0899147 81.1384974 74.5808607 75.8568911"></polyline>
            <polyline id="Path-261" points="156.892333 64.3074925 165.00654 72.445317 171.130484 83.2504242 170.87857 91.3653474 167.020421 101.537091 160.281006 111.274427 156.599626 121.931391 155.793072 129.139567 153.437103 137.761897 151.886973 138.480424 150.652451 133.52373"></polyline>
            <polyline id="Path-262" points="150.652451 140.021966 148.448919 141.560646 147.023315 136.826523"></polyline>
            <polyline id="Path-263" points="147.023315 142.813775 142.923987 142.813775 141.9149 136.826523 138.846845 131.360991 140.159374 127.155744 145.832449 119.347841 148.028824 111.300191 150.679647 101.857709 153.253893 86.4294073 145.366551 79.0408838"></polyline>
            <path d="M153.253893,84.9501281 L165.551877,80.8651134 L162.548232,96.3005719 L160.891468,91.0933948 C157.534045,93.630188 154.988187,95.3659137 153.253893,96.3005719 C150.652451,97.7025593 148.807467,99.5382395 142.564723,101.393958 C138.402894,102.631104 135.783084,103.203159 134.705292,103.110123 L134.705292,96.3005719 L147.023315,94.0855894 L158.823912,88.2393236 L153.253893,84.9501281 Z" id="Path-264" fill="#D8D8D8"></path>
            <polyline id="Path-265" points="167.905698 76.1610486 172.605469 77.2102132 179.921711 90.7462974 189.516629 109.453775 196.838595 122.024428 184.428252 119.347841 172.605469 117.265972 166.852955 115.915513 162.568986 109.453775"></polyline>
            <line x1="159.82298" y1="115.769517" x2="165.551877" y2="115.769517" id="Path-266"></line>
            <path d="M196.838595,122.024428 C203.983793,124.669048 210.998023,126.503297 217.881287,127.527174 L237.532727,127.527174 L254.030948,127.527174 L270.602882,119.347841 L275.765688,117.917943 L279.968788,110.927329 C281.116714,109.162977 282.34718,108.721889 283.660187,109.604065 C284.973193,110.486241 285.291187,112.541392 284.614168,115.769517 L283.660187,122.024428 L279.968788,126.270467 L275.765688,131.605748 C274.560509,134.315732 273.398746,137.169803 272.280401,140.167962 C271.162055,143.16612 269.520082,144.729609 267.35448,144.858429 L262.084324,141.502677 L250.421135,141.502677 L237.532727,143.754874 L217.881287,143.754874 L201.173377,142.813775 L193.896497,142.748649 L175.906831,143.313309 L161.411756,143.258203 L145.974866,145.687885 L136.294784,146.371344 L140.477129,138.843266" id="Path-267"></path>
            <polyline id="Path-268" points="122.343614 105.828933 121.49913 114.522114 121.638684 122.176149 128.156959 129.800126 131.965728 139.866667 135.957706 146.863006 127.984484 148.916248 110.991023 151.465446 101.60007 142.785864 94.7697649 136.045017 94.5836921 130.636022 92.0509543 127.316053 92.3272009 123.365584 88.9800366 120.288941"></polyline>
            <line x1="116.082263" y1="110.927329" x2="108.675848" y2="115.769517" id="Path-269"></line>
            <line x1="148.837883" y1="81.9543552" x2="127.228742" y2="101.393958" id="Path-270"></line>
        </g>
    </g>
</svg>