<?xml version="1.0" encoding="UTF-8"?>
<svg width="138px" height="142px" viewBox="0 0 138 142" version="1.1" xmlns="http://www.w3.org/2000/svg" xmlns:xlink="http://www.w3.org/1999/xlink">
    <!-- Generator: Sketch 62 (91390) - https://sketch.com -->
    <title>Group 23</title>
    <desc>Created with Sketch.</desc>
    <g id="Page-1" stroke="none" stroke-width="1" fill="none" fill-rule="evenodd">
        <g id="Group-23" transform="translate(1.000000, 1.000000)" stroke="#979797">
            <path d="M57.8807691,61.0983815 C58.3803487,60.5179876 56.5172775,59.7075066 52.2915556,58.6669384 C48.0658337,57.6263702 45.3057901,57.9556386 44.0114248,59.6547435 L38.3039953,65.4172737 L23.1102308,76.286135 L28.1494392,84.5782878 L41.6110384,98.1741323 C43.2353399,100.3274 44.2431816,104.824285 44.6345635,111.664785 C45.0259454,118.505285 44.6783101,127.89344 43.5916577,139.829251" id="Path-286"></path>
            <path d="M23.1102308,76.286135 C22.2466527,78.1782593 18.8527842,73.688388 12.9286253,62.8165212 C7.00446636,51.9446544 2.6949246,42.9689191 -1.20792265e-13,35.8893154 L2.01668521,31.0434603 L11.8125859,25.4802944 L34.1734473,17.3223869 L62.1505716,10.7764251 L83.943395,3.27371494 L93.0109647,0.880341375 C98.2178128,-0.498177678 102.216119,-0.257738308 105.005884,1.60165948 C107.795648,3.46105728 110.41243,6.03743191 112.856229,9.33078339 C115.252608,11.3063935 114.445801,11.5802273 110.435806,10.1522846 C106.425812,8.72434187 99.8982169,9.66339119 90.8530213,12.9694325 L103.037286,14.6605228 L101.235995,17.35144 L93.6831931,19.1046438 C87.9246702,22.9282976 83.6027725,24.4363868 80.7175001,23.6289112 C76.3895914,22.4176979 74.8597959,20.2918132 72.1798988,21.5070338 C70.3932996,22.3171809 66.100455,24.3315285 59.3013651,27.5500766 L34.0291836,45.4447767 L36.7150918,51.716237 L46.2214633,57.7352358" id="Path-287"></path>
            <path d="M68.3569128,22.6831831 C68.2594013,25.2558843 67.6977082,28.8374291 66.6718336,33.4278174 C65.6459589,38.0182057 66.207652,40.7081211 68.3569128,41.4975637 L80.7175001,23.6289112" id="Path-288"></path>
            <line x1="67.5975251" y1="32.0903734" x2="73.4460746" y2="32.0903734" id="Path-289"></line>
            <polygon id="Path-290" fill="#D8D8D8" points="87.0059914 26.3639091 90.6556607 32.0903734 80.7175001 43.6514998 87.0059914 45.3716431 73.4460746 54.3009602 73.4460746 38.3534328 77.1359553 43.6514998"></polygon>
            <polyline id="Path-291" points="106.573749 32.0903734 100.455569 41.4975637 90.3260584 49.7286048 77.197067 63.6590608 71.3924599 73.4138864 72.5135084 85.3897707 70.8164072 92.1120547 65.8663617 101.034359 63.1313638 101.364963 64.2564197 93.4474951 67.8770359 87.0127364"></polyline>
            <polyline id="Path-292" points="63.1313638 101.364963 60.7379903 105.246055 57.1004098 105.246055 56.8017974 99.7369882 59.313387 91.7513957"></polyline>
            <polyline id="Path-293" points="56.8017974 103.106145 53.5899282 102.05823 52.7283538 97.5950742 54.2130669 90.1474647"></polyline>
            <polyline id="Path-294" points="52.7283538 98.4987255 46.6432341 96.6268048 46.6432341 90.1474647 49.6857939 84.7996924"></polyline>
            <polyline id="Path-295" points="46.6432341 91.6492089 44.3740875 87.6569136 46.6432341 79.1543764 51.7495652 70.5306176 60.1449065 59.9613037 69.3757746 40.2663138"></polyline>
            <polyline id="Path-296" points="105.25033 35.0257374 104.87264 50.1463682 105.122096 63.2483102 78.5094652 63.5388411"></polyline>
            <path d="M75.8756523,66.7276683 C75.8756523,71.972252 73.2418393,73.8255622 75.8756523,76.7068656 C77.6315276,78.6277346 82.558197,81.3253435 90.6556607,84.7996924 C95.6481171,85.6004891 99.0436553,85.4939611 100.842275,84.4801084 C102.640895,83.4662557 105.116753,81.1573699 108.269848,77.5534509 L112.455497,80.4838057" id="Path-297"></path>
            <polyline id="Path-298" points="108.654551 76.7068656 105.25033 70.5065737 105.25033 58.0741037 112.455497 58.0741037 126.233675 63.5388411 131.463231 65.9522513 127.803543 41.7059445 121.630262 21.925799 111.945565 10.8926375"></polyline>
            <path d="M131.463231,66.7276683 C133.784139,65.5294787 134.944593,65.9669448 134.944593,68.0400665 C134.944593,70.1131882 135.260532,74.2814718 135.892412,80.5449174 C135.899032,84.9623229 135.522983,88.5729208 134.764263,91.376711 C133.626183,95.5823963 134.37956,102.247576 134.326463,106.191783 C134.291065,108.821255 132.864124,112.762791 130.04564,118.016391 L123.770173,140.262042" id="Path-299"></path>
        </g>
    </g>
</svg>