<?xml version="1.0" encoding="UTF-8"?>
<svg width="213px" height="159px" viewBox="0 0 213 159" version="1.1" xmlns="http://www.w3.org/2000/svg" xmlns:xlink="http://www.w3.org/1999/xlink">
    <!-- Generator: Sketch 62 (91390) - https://sketch.com -->
    <title>Group 7</title>
    <desc>Created with Sketch.</desc>
    <g id="Page-1" stroke="none" stroke-width="1" fill="none" fill-rule="evenodd">
        <g id="Group-7" transform="translate(0.954368, 1.041620)" stroke="#979797">
            <path d="M68.7219547,41.7906123 L58.4667907,41.7906123 L50.0718997,43.8829643 L43.2251124,52.0776303 C41.0365917,54.4160164 39.2479145,57.6896963 37.8590806,61.8986699 C36.4702467,66.1076436 35.0437948,70.7549888 33.5797248,75.8407055 L29.9374488,86.1386449 L24.9846086,96.5612698 L22.1778172,108.837797 L18.7585191,122.004415 L16.8918754,134.043403 L13.5007908,138.95838 C13.6015101,139.71232 11.3043825,140.936909 6.609408,142.632148 C1.91443351,144.327387 -0.279244485,145.583648 0.0283740304,146.40093 C0.22192493,147.287988 2.84153625,147.287988 7.88720799,146.40093 C12.9328797,145.513872 17.6964161,143.628723 22.1778172,140.745482 L26.3643414,142.632148 L29.9374488,144.871028 L31.9806546,144.871028 C32.1826999,146.588717 31.5016313,145.213535 29.9374488,140.745482 C27.591175,134.043403 22.791234,137.956893 26.3643414,129.980654 C28.746413,124.663162 31.1515408,118.428274 33.5797248,111.275992 L39.6574657,99.8158373 L43.2251124,88.2455587 L48.7003579,77.9521699 L50.0308337,76.3911855 L53.9744683,71.7643052" id="Path-35"></path>
            <path d="M50.0308337,76.3911855 C54.2089374,81.1754438 58.5960269,87.1878546 63.1921024,94.4284178 L70.8097561,102.876551 L76.6936428,110.627991 L81.0985943,112.704871 C80.9875604,116.035888 81.5187636,119.223107 82.6922039,122.266528 C83.8656441,125.309949 85.1819723,128.697393 86.6411883,132.428861 C85.0709383,132.428861 83.7546102,132.428861 82.6922039,132.428861 C81.0985943,132.428861 82.8623952,129.55017 79.778019,128.333348 C77.7217682,127.522133 74.7323473,127.522133 70.8097561,128.333348 L63.1921024,132.428861 C60.9162846,132.103405 58.1537854,133.110295 54.9046047,135.449529 C51.6554241,137.788763 49.4144202,140.969308 48.181593,144.991163 L51.3333176,149.660048 L63.1921024,149.660048 L79.778019,147.066223 L88.6361581,148.345843 L96.4158121,152.025434 L105.097389,154.209708 L115.302497,156.484993 L125.413863,156.484993 C130.014792,156.424318 132.837662,155.66589 133.882473,154.209708 C135.449689,152.025434 137.758648,149.350609 137.758648,143.322925 C137.758648,137.29524 139.146572,138.945276 133.882473,130.605902 C128.618374,122.266528 129.758747,120.171307 122.530622,116.438089 C115.302497,112.704871 111.520973,108.971653 107.372674,112.704871 C104.607141,115.193683 102.283923,117.703777 100.403021,120.235154 C98.9122547,120.283087 98.1668713,122.023528 98.1668713,125.456478 C98.1668713,128.889427 99.9543351,130.605902 103.529263,130.605902 C104.953894,131.495752 106.235032,133.110295 107.372674,135.449529" id="Path-36"></path>
            <path d="M86.6411883,132.428861 C92.4374007,131.487803 98.0667588,130.88015 103.529263,130.605902" id="Path-37"></path>
            <path d="M81.0985943,112.704871 C83.2136991,105.751601 83.5149469,103.517726 90.2470598,98.9730718 C96.9791726,94.4284178 97.6481064,90.987732 105.640727,90.987732 C110.969141,90.987732 116.588488,92.1346273 122.498768,94.4284178 C122.154745,95.5427006 123.552073,97.0575853 126.690753,98.9730718 C129.829432,100.888558 132.49637,104.044833 134.691564,108.441897 C133.808147,110.955072 135.649004,112.916064 140.214136,114.324874 C147.061833,116.438089 148.823814,119.189433 151.949145,119.189433 C154.032699,119.189433 161.059082,118.272318 173.028294,116.438089 L190.221257,116.438089 C195.779019,114.60386 200.155454,114.60386 203.350561,116.438089 C206.545667,118.272318 209.050301,121.124942 210.864462,124.99596" id="Path-38"></path>
            <path d="M210.864462,131.517381 L207.25586,134.461145 L200.437286,138.95838 C200.263151,138.416924 198.329159,139.164007 194.63531,141.199629 C190.94146,143.23525 186.477048,144.428106 181.242073,144.778197 C181.921018,145.048804 178.465922,145.811479 170.876785,147.066223 C163.287648,148.320967 160.345856,149.101845 162.05141,149.408857 L154.390981,149.408857 L150.87157,152.779919 L144.63729,156.484993 L133.882473,154.209708" id="Path-39"></path>
            <path d="M144.63729,156.484993 L145.981528,153.253178 L145.981528,149.041171 L144.63729,145.550884 C146.163247,149.194373 147.902778,150.357802 149.855883,149.041171 C151.808988,147.724539 151.808988,146.044544 149.855883,144.001187 L145.981528,138.95838 L157.02121,135.37581 L172.373467,128.855753 L179.187945,124.99596 L192.299957,122.43763" id="Path-40"></path>
            <path d="M137.924092,136.689104 C141.569533,133.241289 144.255345,129.343574 145.981528,124.99596 L151.949145,119.189433" id="Path-41"></path>
            <path d="M113.686134,107.991846 C110.21496,106.39945 105.808795,106.39945 100.467639,107.991846" id="Path-42"></path>
            <path d="M122.796375,95.8877855 C123.739253,92.6210832 122.371352,87.7437825 118.692671,81.2558835 L113.686134,68.9502328 L110.187656,53.3144752" id="Path-43"></path>
            <path d="M110.187656,53.3144752 C111.28404,52.3558218 111.28404,50.1955147 110.187656,46.8335537 C109.091272,43.4715928 106.871808,40.8762512 103.529263,39.0475289 L97.8537921,37.5212678 L93.0528426,41.7906123 L91.6732083,46.8335537 C90.629611,48.1368369 88.952271,48.7884785 86.6411883,48.7884785 C84.3301056,48.7884785 80.5367507,48.1368369 75.2611235,46.8335537 L68.7219547,41.7906123 C70.4845421,41.71841 70.4845421,40.2952951 68.7219547,37.5212678 C66.0780737,33.3602268 66.7551985,37.6869085 66.4166361,29.2983883 C66.1909278,23.7060414 66.9593674,18.7313586 68.7219547,14.3743397" id="Path-44"></path>
            <polyline id="Path-45" points="97.7258094 38 97.7258094 29.8076988 100.329029 22.7030344 103.378203 17.8925461 100.329029 9.35275426 92.944381 2.91818468 84.273729 0 75.6256394 2.91818468 68.7124248 9.35275426 66.378203 17.8925461"></polyline>
            <path d="M103.529263,17.667132 C96.5449826,15.4719371 90.3531394,13.9068445 84.9537329,12.9718541 L77.2051269,14.3743397 L68.7219547,15.3194931" id="Path-46"></path>
            <polyline id="Path-47" points="66.378203 21.9701507 77.6556333 17.667132 86.1256087 17.667132 93.0528426 18.7606339 100.467639 21.9701507"></polyline>
            <polyline id="Path-48" points="35.8167849 69.622807 42.1611892 74.6011303 48.181593 78.5337327"></polyline>
            <line x1="210.864462" y1="124.99596" x2="210.864462" y2="131.517381" id="Path-50"></line>
        </g>
    </g>
</svg>