<?xml version="1.0" encoding="UTF-8"?>
<svg width="248px" height="86px" viewBox="0 0 248 86" version="1.1" xmlns="http://www.w3.org/2000/svg" xmlns:xlink="http://www.w3.org/1999/xlink">
    <!-- Generator: Sketch 62 (91390) - https://sketch.com -->
    <title>Group 11</title>
    <desc>Created with Sketch.</desc>
    <g id="Page-1" stroke="none" stroke-width="1" fill="none" fill-rule="evenodd">
        <g id="Group-11" transform="translate(1.000000, 1.000000)" stroke="#979797">
            <path d="M48.6137229,21.7226848 L43.1201458,19.0982483 L39.9050224,14.9741338 L38.3730241,11.0783679 L31.6039524,9.48433101 C26.8654564,8.24801929 23.8153563,7.62986342 22.453652,7.62986342 C21.0919477,7.62986342 20.1909248,8.77936493 19.7505831,11.0783679 L16.6423998,13.117779 C13.9550573,12.0787823 12.3027275,12.0787823 11.6854104,13.117779 C11.253064,13.8454544 10.4644344,14.7881957 9.31952143,15.946003 C8.99296942,16.2762327 8.43792786,16.8109426 7.65439675,17.5501327 L2.79805693,25.0868953 L0,33.7320609 L1.68525057,42.0513736 C3.58039734,44.7970089 5.57011273,46.5611016 7.65439675,47.3436517 C9.73868076,48.1262018 14.0492066,48.7875531 20.5859742,49.3277055 L17.6105224,43.6806378 L13.3593379,37.4894336 L11.6854104,29.752001 L9.31952143,17.5501327" id="Path-154"></path>
            <path d="M15.5277062,13.1863465 L15.5277062,21.270391 L17.0456269,30.9786672 L20.1682786,39.362773 L26.414211,46.8246775 C26.414211,49.36482 26.414211,50.6348913 26.414211,50.6348913 C26.414211,50.6348913 24.5997935,50.1991627 20.9709586,49.3277055" id="Path-155"></path>
            <path d="M48.6137229,21.7226848 C46.9588769,24.2716341 44.1157374,26.5236674 40.0843043,28.4787845 L33.5685054,32.993545 L28.7505382,39.3067867 L26.414211,46.8246775 L26.414211,57.0519279 L33.5685054,63.7224755 C34.3411494,59.8382424 35.3350635,56.9640692 36.5502477,55.0999561 C38.3730241,52.3037863 42.2992231,49.3277055 45.456473,49.3277055 C47.5613063,49.3277055 50.0909645,49.3277055 53.0454475,49.3277055 L48.6137229,55.0999561 L59.7084464,41.2688235 L65.5612166,31.9106189 L70.2829377,24.7427997 L72.3594633,16.359952 L77.2113997,10.9016022 L67.181674,13.1863465 L59.7084464,16.359952 L48.6137229,22.5498981" id="Path-156"></path>
            <path d="M33.6628643,64.700034 C40.0012685,68.1619585 46.0512488,71.0751333 51.8128053,73.4395585 L58.7554212,74.2749496 L63.2475355,70.2961479 C65.3574013,68.6798842 67.0376194,66.8145129 68.2881898,64.700034 C69.5387602,62.5855552 71.3414352,58.7967294 73.6962148,53.3335568 C75.0021425,48.8672339 76.1738708,45.4298428 77.2113997,43.0213834 C78.2489286,40.6129241 79.7660105,36.9093359 81.7626456,31.9106189 C84.0956178,30.4488942 86.079462,28.952047 87.7141781,27.4200772 C89.3488942,25.8881075 91.5229241,23.4741963 94.2362676,20.1783436 C98.4643866,19.3580499 100.578446,18.4813506 100.578446,17.5482455 C100.578446,16.6151405 98.4643866,16.0756171 94.2362676,15.9296753 L100.578446,13.1863465 C101.300607,11.6631836 100.811618,10.9016022 99.1114793,10.9016022 C96.5612718,10.9016022 100.287821,7.19392515 95.5755355,9.04776368 C92.434012,10.283656 90.4294089,10.9016022 89.561726,10.9016022 L88.6156205,9.04776368" id="Path-157"></path>
            <path d="M79.9144686,9.62209506 C78.6982868,7.53026233 78.6982868,6.48434596 79.9144686,6.48434596 C81.1306504,6.48434596 84.8301497,5.94146756 91.0129665,4.85571076 C95.8197198,3.76995395 99.1158619,3.76995395 100.901393,4.85571076 C103.579689,6.48434596 107.143312,6.05784358 108.706525,9.62209506 C110.269738,13.1863465 110.908233,14.3727529 109.807379,14.3727529 C109.073476,14.3727529 106.104814,13.9772841 100.901393,13.1863465" id="Path-158"></path>
            <polyline id="Path-159" points="110.359139 14.3727529 123.268625 19.8034241 131.837045 23.0971799 122.267791 26.4519546 117.122084 35.1292022 115.957694 46.7913374 117.122084 60.5903879 119.119977 66.3274111 103.494137 64.6295794 92.9907297 63.7224755 80.8335246 62.1309548 70.6786161 62.1309548"></polyline>
            <path d="M131.837045,23.0971799 L145.306468,24.4439965 C153.531632,24.4439965 158.420473,24.4439965 159.972992,24.4439965 C161.525511,24.4439965 164.617968,23.700448 169.250362,22.2133512 L170.184516,26.9432501 L177.463364,33.11055 L184.910171,41.4018193 L190.377957,50.0360266 L188.179394,53.8871292 L184.910171,58.2175753 C183.295585,59.0990974 181.650804,58.5977369 179.975828,56.7134938 C178.300852,54.8292508 175.707659,53.1693723 172.196248,51.7338584 L172.196248,47.1392073 L167.497802,43.8561455 L162.015548,39.0677441 L154.56308,37.8146574 L143.440048,40.350082 L136.868263,45.3684047 L133.389564,51.7338584 L133.389564,60.22113 L136.868263,66.3274111 L143.440048,73.2489535 L133.389564,73.2489535 L126.193122,70.6333238 L119.119977,66.3274111" id="Path-160"></path>
            <path d="M169.250362,22.2133512 L177.187207,16.40147 L188.686416,9.30756528 L201.09839,2.8389458 L207.923686,0 L213.555027,1.6676369 L218.788174,6.64601427 L222.446784,14.3727529 L220.596091,25.3422935 L218.788174,37.9077583 L218.788174,50.5757597 L222.446784,56.4977264 L228.909742,57.6212268 L239.529526,59.017739 L245.574159,61.5993995 L245.574159,65.0636305 L236.945349,60.6319059 L230.076648,60.6319059 L222.446784,60.6319059 L209.327747,61.5993995 L202.86416,61.5993995 L202.86416,52.4308564 C201.68698,48.2440456 201.09839,45.1838805 201.09839,43.2503611 C201.09839,40.350082 199.33262,35.6802583 201.09839,30.5112759 C202.27557,27.0652876 204.550669,22.0741194 207.923686,15.5377712" id="Path-161"></path>
            <polyline id="Path-162" points="199.924565 41.4002969 195.194666 46.3163974 184.910171 58.2175753 189.346928 60.4796734 197.064231 62.7392554 203.777554 62.7392554"></polyline>
            <polyline id="Path-163" points="245.574159 66.3274111 240.681963 67.5339474 244.443739 69.8476284 243.128061 71.163621 243.128061 75.0153527 238.055639 77.2164321 229.431232 78.1939907 216.605337 77.2164321 202.869821 77.2164321 186.693555 79.2011151 175.04463 83.9033353 163.558002 81.4789397 151.895867 76.3187641 142.610319 73.2489535"></polyline>
        </g>
    </g>
</svg>