<?xml version="1.0" encoding="UTF-8"?>
<svg width="133px" height="171px" viewBox="0 0 133 171" version="1.1" xmlns="http://www.w3.org/2000/svg" xmlns:xlink="http://www.w3.org/1999/xlink">
    <!-- Generator: Sketch 62 (91390) - https://sketch.com -->
    <title>Group 3</title>
    <desc>Created with Sketch.</desc>
    <g id="Page-1" stroke="none" stroke-width="1" fill="none" fill-rule="evenodd">
        <g id="Group-3" transform="translate(1.489572, 1.055669)" stroke="#979797">
            <path d="M52.3836895,0.466521363 C42.0000505,1.10783335 33.1825033,1.74397346 25.9310478,2.37494171 L13.6116514,6.3425055 L6.87861435,12.7039067 L2.37760902,21.5943527 C0.249261025,26.4889127 -0.450172939,30.2104432 0.279307132,32.7589442 C1.0087872,35.3074451 3.20855627,36.7700994 6.87861435,37.1469072 L8.13464013,22.7476799" id="Path-2"></path>
            <path d="M53.7845277,0.466521363 L57.9936917,7.81427218 L57.9936917,18.8067143 L55.8891097,29.3181724 L53.7845277,35.1077124 C53.7845277,37.2316273 53.7845277,39.5380355 53.7845277,42.0269368 C53.7845277,44.515838 52.9208253,45.3049178 51.1934204,44.3941759 L40.9730647,42.0269368 L26.1918448,39.6131507 L13.8414302,37.1469072 L6.87861435,37.1469072" id="Path-127"></path>
            <path d="M47.0101157,18.8067143 C49.3115982,23.8751477 50.9828514,21.8573792 52.3836895,28.4825458 C53.3175816,32.8993235 53.7190173,35.787444 53.5879966,37.1469072" id="Path-128"></path>
            <path d="M47.0101157,27.9768107 C50.5924983,31.279666 52.7931852,33.6832314 53.6121767,35.187507" id="Path-129"></path>
            <path d="M53.6121767,0.466521363 C59.9257549,-0.582629583 57.4595114,0.0808475641 68.348516,3.03768002 C79.2375207,5.99451247 80.7373633,4.64982605 88.1944622,12.4586122 C93.1658615,17.6644696 98.2416833,24.3741101 103.421928,32.5875336 L109.815838,42.7938513 L115.309103,50.215486 C117.55119,51.7300166 119.233427,52.9730891 120.355817,53.9447036 C121.810422,55.2039051 123.266032,56.6231147 124.722647,58.2023323 C127.865174,61.6093638 129.80832,65.6485949 130.552085,70.3200257 L128.124999,78.3519412 C126.474434,80.9230998 124.822637,82.9593393 123.169608,84.4606595 C121.51658,85.9619797 118.554576,86.7820907 114.283595,86.9209923 L109.815838,86.9209923 C112.110671,84.7207307 113.599923,83.1718785 114.283595,82.2744358 C114.967267,81.3769931 116.403077,79.2185989 118.591025,75.7992535 L120.316213,70.3200257 L120.316213,62.6316703" id="Path-130"></path>
            <line x1="120.316213" y1="62.6316703" x2="118.885822" y2="55.7892851" id="Path-131"></line>
            <path d="M114.802999,55.7892851 C114.802999,55.8730202 114.802999,58.472501 114.802999,63.5877275 C114.802999,68.7029541 114.254042,73.210609 113.156127,77.1106922 L109.815838,86.9209923" id="Path-132"></path>
            <polyline id="Path-133" points="116.234868 51.5187975 112.309418 57.3356745 109.815838 64.3620305 106.615927 74.9687988 102.026261 85.1485183 109.130565 86.9209923"></polyline>
            <path d="M106.615927,74.9687988 C102.871493,70.4702562 99.2349288,65.8704928 95.7062352,61.1695085 C94.5850362,61.1163121 93.3770013,59.9908145 92.0821306,57.7930157 C90.7872599,55.5952168 91.281084,52.4243674 93.563603,48.2804675" id="Path-134"></path>
            <path d="M88.2971608,51.5187975 C90.351783,54.3657892 91.6134396,56.9296826 92.0821306,59.2104777" id="Path-135"></path>
            <path d="M53.7845277,42.0269368 C59.0820011,49.3769041 55.6715217,50.1840854 61.386439,55.3646376 C67.1013563,60.5451898 69.7774301,62.9116901 71.5395604,64.0169928 C72.7143139,64.7538613 76.1696162,64.7538613 81.9054672,64.0169928 L92.0821306,64.0169928 L93.3330853,71.3551387 L91.3790942,79.7468686 L86.7670258,92.7644676 L84.0163294,106.141881 C84.7354657,108.770176 84.7354657,113.752658 84.0163294,121.089327 C83.2971931,128.425995 82.1586426,134.135001 80.6006781,138.216346 L78.2637313,142.563673 L77.1746831,147.665354 L77.1746831,154.001635 L79.2759403,154.001635 C81.0289583,152.214631 81.9054672,152.214631 81.9054672,154.001635 C81.9054672,155.78864 82.609088,155.78864 84.0163294,154.001635 L84.0163294,159.804474 C84.8300371,161.328452 85.7469359,161.709447 86.7670258,160.947458 C88.2971608,159.804474 90.1896457,156.66441 90.1896457,154.001635 C90.1896457,151.33886 90.1896457,146.076851 90.1896457,138.216346 C90.1896457,132.97601 91.2374589,127.267003 93.3330853,121.089327 L96.5063975,109.918824 L98.9975108,99.5728661 L102.026261,85.1485183" id="Path-136"></path>
            <path d="M91.3790942,74.9687988 C88.446239,72.5596921 86.9502578,69.2415675 86.8911507,65.014425" id="Path-137"></path>
            <path d="M86.8911507,71.3551387 C84.7933414,73.0323026 82.1214544,71.9878309 78.8754898,68.2217238 L72.6138318,64.0568901" id="Path-138"></path>
            <path d="M7.98982774,37.1469072 C11.9056728,46.4946943 13.3552743,53.2576543 16.8854456,61.6246331 C20.4156169,69.9916119 26.5302459,74.4139309 28.0227001,79.9818193 C29.5151543,85.5497077 28.7511689,77.7372274 26.1918448,91.3865334 C24.4856286,100.486071 24.4856286,110.563092 26.1918448,121.617596 C27.412415,124.430109 28.0227001,129.196111 28.0227001,135.915603 C28.0227001,142.635094 27.412415,149.272082 26.1918448,155.826567 C26.2218996,158.615929 27.5547689,160.01061 30.1904528,160.01061 C34.1439787,160.01061 37.4229448,160.01061 44.7891666,160.01061" id="Path-139"></path>
            <path d="M11.4860124,37.1469072 C13.9931384,42.2224014 16.6645329,47.6449848 19.5001958,53.4146575 C18.2535112,53.3668793 20.4840609,57.2334685 26.1918448,65.014425 C31.8996287,72.7953816 38.0987359,80.8075947 44.7891666,89.0510643 L44.7891666,95.8978825 L43.5471787,105.374966 L43.5471787,114.752307 L48.2809183,130.553693 L51.621208,143.13849 L51.621208,156.554323 L51.621208,166.294433 C51.9773282,167.859294 52.6984348,168.641724 53.7845277,168.641724 C54.8706206,168.641724 57.8432149,168.641724 62.7023107,168.641724 L72.6138318,167.532727 L83.41787,166.294433 L89.1351224,163.976696 L86.8911507,161.328452" id="Path-140"></path>
            <path d="M83.6513431,72.1302825 C82.2588784,78.5231395 80.9592611,84.281368 79.7524913,89.404968 L77.9053945,98.5787587 L75.0749035,108.198808 L72.6138318,116.620091 L69.5971534,128.19991 L69.5971534,141.556636 L69.5971534,152.410915" id="Path-141"></path>
            <path d="M71.0349335,64.0568901 C70.0764135,71.9644344 68.7994539,78.3071183 67.2040549,83.0849418 L64.2856421,95.9355632" id="Path-142"></path>
            <path d="M59.815668,54.2007819 C60.7667996,58.6805392 61.2423655,62.7887286 61.2423655,66.5253502 C61.2423655,70.2619718 61.9319483,76.4916133 63.3111138,85.2142749 L63.3111138,97.0297833 L64.2856421,112.270599 L64.2856421,126.700068 L63.3111138,138.077445 L67.6602878,150.704198" id="Path-143"></path>
        </g>
    </g>
</svg>