<?xml version="1.0" encoding="UTF-8"?>
<svg width="202px" height="158px" viewBox="0 0 202 158" version="1.1" xmlns="http://www.w3.org/2000/svg" xmlns:xlink="http://www.w3.org/1999/xlink">
    <!-- Generator: Sketch 62 (91390) - https://sketch.com -->
    <title>Group 6</title>
    <desc>Created with Sketch.</desc>
    <g id="Page-1" stroke="none" stroke-width="1" fill="none" fill-rule="evenodd">
        <g id="Group-6" transform="translate(0.656631, 1.189525)" stroke="#979797">
            <path d="M58.017797,-5.68434189e-14 C53.810626,0.830871348 51.7070405,1.24630702 51.7070405,1.24630702 C51.7070405,1.24630702 50.3398597,2.52582712 47.605498,5.08486731 L44.104241,12.3715981 L42.1482087,21.468986 L42.1482087,27.5028761 L44.104241,32.5485411 L51.7070405,40.4984445 C56.9650514,43.6433415 59.5940569,45.2157901 59.5940569,45.2157901 C59.5940569,45.2157901 61.8933817,45.2157901 66.4920314,45.2157901 L70.9537452,40.4984445 L75.0871396,32.5485411" id="Path-15"></path>
            <polyline id="Path-16" points="58.6176741 0 65.7267695 1.1630021 72.1028631 4.81208452 75.0871396 10.9358133 75.0871396 18.626818 77.4874648 20.8785011 75.0871396 24.1763961 75.0871396 32.5485411"></polyline>
            <path d="M42.1482087,21.468986 C42.1482087,21.468986 45.6685224,21.468986 52.7091498,21.468986 L62.7220751,19.9400956 L71.9354366,18.4912433 L75.0871396,18.4912433" id="Path-17"></path>
            <polyline id="Path-18" points="42.1482087 27.5028761 51.0005821 27.5028761 62.3333188 25.3647164 71.8684659 24.1094255 75.0871396 24.1094255"></polyline>
            <polyline id="Path-19" points="43.499872 30.9681977 38.5930485 35.1260935 33.9336897 35.1260935 27.4040536 38.5914151 21.4199831 47.9779201 14.9801857 54.6602818 6.05349125 61.2250366 -1.20736399e-15 68.2267339 1.38269842 73.6064353 8.22595303 78.2788616 25.9886866 83.3661791 38.5930485 86.5864861 50.3488436 87.8654618 56.2193907 93.9671392 60.7488918 96.3682812 65.9922018 92.3557606 70.3289582 91.2768801 72.687631 89.4694899 75.0871396 91.2768801 77.4874648 89.4694899 72.687631 82.1002709 68.0525695 78.2788616 75.0871396 76.4910726 70.3289582 73.6064353 63.3501289 73.6064353 54.9216306 75.060188 46.5552026 75.060188 38.5930485 73.6064353 24.4083432 65.2253065"></polyline>
            <polyline id="Path-20" points="28.3890118 67.4712726 31.7759288 65.2881935 31.7759288 56.7396381 30.0824703 51.1696421 25.6325989 48.6182246 21.9974006 48.6182246"></polyline>
            <polyline id="Path-21" points="75.0871396 32.5485411 81.8070702 34.6760836 87.7601055 36.3438155 91.5153609 41.7994714 97.2388993 47.1595717 101.467033 52.1995197 99.6939445 56.3541486 98.5766784 62.1944773 95.8031144 67.4712726 91.5153609 72.2392545 83.787604 74.3733307 75.0871396 76.4910726"></polyline>
            <polyline id="Path-22" points="58.6176741 73.713425 48.4867335 71.5009442 42.1482087 71.5009442 35.4821812 71.5009442"></polyline>
            <polyline id="Path-23" points="101.467033 52.1995197 105.695166 52.1995197 105.695166 54.5198068 111.054449 54.5198068 111.054449 56.3827337 114.053427 56.3827337 114.053427 60.4793759 114.053427 64.8006147 117.099774 71.5009442 118.211323 76.4910726 115.562716 82.6058174 109.839178 82.6058174 104.195677 75.3525719 99.6898609 68.7608655 97.9478079 63.6682394 101.467033 63.6682394 108.079565 66.1726958"></polyline>
            <polyline id="Path-24" points="105.955698 65.0611468 103.208269 61.7926535 105.955698 60.7382745 114.053427 64.8006147"></polyline>
            <polyline id="Path-25" points="106.66134 79.2189005 101.467033 86.9956603 97.9478079 91.6860543 93.3619534 91.6860543 86.08829 89.0889008 80.9609535 86.9956603 76.4183849 86.9956603"></polyline>
            <polyline id="Path-26" points="82.6221517 87.9569338 82.6221517 97.8865543 72.7635855 99.4031939 60.7350077 99.4031939 47.0499277 99.4031939 45.0638811 96.3682812 49.9404861 93.6800639 53.5103472 91.6860543"></polyline>
            <polyline id="Path-27" points="30.2576557 93.6800639 36.9743195 97.554968 45.0638811 96.3682812"></polyline>
            <polyline id="Path-28" points="6.25113627 78.054265 7.68038744 85.4524774 10.8557752 95.6175159 16.7402064 105.232905 24.276852 114.7362 31.7759288 123.809904 37.6607684 132.075876 47.0499277 132.075876 51.3199176 130.332189 53.496463 123.809904 53.496463 115.918804 51.3199176 107.541758 47.0499277 99.4031939"></polyline>
            <polyline id="Path-29" points="26.8866647 117.423193 24.6231392 120.774174 25.7549019 126.186544 31.7759288 132.075876 38.7437324 136.904295 49.7550918 136.904295 58.6176741 138.425018 71.4160058 138.425018 77.4874648 135.389288 76.4183849 132.075876"></polyline>
            <path d="M82.6221517,97.554968 C82.6221517,97.554968 83.6789809,99.01716 85.7926392,101.941544 L91.5398623,106.220314 L99.0871252,107.470704 L93.2557805,111.810475 L88.2770861,117.423193 L82.6221517,123.026674 L76.4183849,132.075876" id="Path-30"></path>
            <polyline id="Path-31" points="99.0871252 107.470704 111.849113 111.810475 122.39372 113.222011 129.343369 114.815422 137.426992 120.898315 148.518798 124.356286 164.828596 132.075876 178.488153 134.97113 184.597998 127.924105 190.142676 125.698149 194.631341 127.924105 192.388642 129.935266 199.895886 134.97113 199.895886 138.425018 196.308057 148.092473 194.631341 155.807162 187.460584 155.807162 184.597998 154.429364 179.663406 148.092473 169.304194 148.092473 152.200549 148.092473 137.426992 142.386902 126.249431 136.953297 111.849113 136.953297 94.0390101 136.953297 77.4874648 135.389288"></polyline>
            <path d="M99.0871252,44.08709 L106.66134,32.5485411 C111.589398,28.0536142 114.053427,25.8061508 114.053427,25.8061508 C114.053427,25.8061508 115.833321,25.8061508 119.393109,25.8061508 L123.617159,29.4932105 L123.617159,34.9466204 L123.617159,44.08709" id="Path-32"></path>
            <polyline id="Path-34" points="98.6251911 43.8625266 104.301847 47.1258683 109.58678 38.8574014 113.898238 33.6032211 118.141353 32.5485411 120.386678 34.899949 121.625191 42.6588941 120.386678 44.9692599 113.898238 42.6588941 121.625191 57.5485411"></polyline>
            <path d="" id="Path-33"></path>
            <polyline id="Path-49" points="121.625191 58.0447486 132.613253 45.2966449 123.617159 46.1775684 123.617159 43.0571189"></polyline>
            <path d="M99.0871252,44.08709 L108.630848,30.757385 C110.419101,28.5375888 112.226627,26.8871774 114.053427,25.8061508 C115.880227,24.7251242 117.966473,24.7251242 120.312165,25.8061508 L123.617159,29.4932105 L123.617159,38.6949002 L123.617159,46.1775684 L133.157244,45.0485411 L122.125191,58.0447486 L113.898238,42.6588941 L121.125191,46.1775684 L119.852395,34.2840183 L117.339523,32.5485411 L113.467738,34.2840183 L104.757031,47.2871026 L99.0871252,44.08709 Z" id="Path-325" fill="#D8D8D8"></path>
        </g>
    </g>
</svg>