<?xml version="1.0" encoding="UTF-8"?>
<svg width="194px" height="149px" viewBox="0 0 194 149" version="1.1" xmlns="http://www.w3.org/2000/svg" xmlns:xlink="http://www.w3.org/1999/xlink">
    <!-- Generator: Sketch 62 (91390) - https://sketch.com -->
    <title>Group 29</title>
    <desc>Created with Sketch.</desc>
    <g id="Page-1" stroke="none" stroke-width="1" fill="none" fill-rule="evenodd">
        <g id="Group-29" transform="translate(1.225992, 1.238313)" stroke="#979797">
            <g id="Group-28">
                <g id="Group-12">
                    <path d="M47.0284814,26.3121087 C41.1685856,27.6757078 35.1598176,28.5634472 29.0021773,28.9753272 L15.8030563,30.2200056 C10.7573501,31.6169236 7.74428185,32.7460489 6.76385167,33.6073812 C5.78342149,34.4687136 3.75521417,36.1513246 0.679229691,38.6552142 C-0.226409897,40.19746 -0.226409897,42.0133471 0.679229691,44.1028756 C1.58486928,46.1924041 4.05543989,47.7807294 8.09094154,48.8678513 L19.5604859,51.2657581 L21.3953365,38.7889334 L21.3953365,34.9174571 L14.4339632,35.7484833 L29.0021773,34.9174571 L42.6463201,33.6073812 L50.4626454,27.2850953 C54.0330985,25.2728386 52.8883771,24.9485097 47.0284814,26.3121087 Z" id="Path-164"></path>
                    <path d="M48.2221179,25.4859172 L47.4389751,23.7146459 L44.1898064,16.3658467 L45.4674494,8.36449432 L50.5269795,2.12834164 L55.8986097,0 L63.6787804,0 L68.7569196,2.96415305 L73.8690867,10.2253976 L75.8076162,16.3658467 L70.0473231,16.3658467 C66.5229495,16.6079413 64.1067882,17.2810566 62.798839,18.3851925 C61.4908899,19.4893285 58.0547354,21.8562367 52.4903756,25.4859172" id="Path-165"></path>
                    <path d="M47.2650819,20.8240392 C48.3047066,14.7709639 50.0464711,9.976391 52.4903756,6.44032035 L59.9987113,0" id="Path-166"></path>
                    <path d="M75.8076162,16.3658467 L87.378181,19.249715 L94.431536,19.249715 L108.833864,17.8077808 C113.662996,17.8077808 116.675533,17.8077808 117.871474,17.8077808 C119.665384,17.8077808 123.263839,18.5925503 124.07094,20.8240392 C124.87804,23.055528 125.777654,26.1722752 124.07094,28.3729262 C122.93313,29.8400269 120.303054,32.0413868 116.18071,34.977006 L114.719635,31.9336317 L111.659778,30.3864235 L107.761452,24.0907219 C106.59245,22.6923861 106.949921,21.9932181 108.833864,21.9932181" id="Path-167"></path>
                    <polyline id="Path-168" points="107.119174 22.8008501 102.817298 22.8008501 98.1894972 25.6714263 88.6441269 19.9993932"></polyline>
                    <path d="M116.18071,34.977006 C110.139686,38.7073195 107.119174,39.8402634 107.119174,38.3758377 L105.539533,36.9860441 L108.172977,43.0527945 L107.119174,46.1748585 L97.8816507,43.0527945 L91.2547083,39.5011277 L81.2483656,39.5011277 L71.7880651,44.0539604" id="Path-169"></path>
                    <path d="M107.119174,46.1748585 L128.441936,46.1748585 L133.587599,45.1853896 L140.659031,37.8358851 L151.874961,27.3951544 C154.013051,24.5212109 156.184813,22.5700981 158.390249,21.5418162 C160.595686,20.5135342 162.757701,20.9447321 164.876295,22.8354098 L170.5143,28.5138232 C171.656008,31.1109352 172.226863,33.5636057 172.226863,35.8718346 C172.226863,38.1800636 170.878328,41.2845819 168.181259,45.1853896 L163.50029,54.6940736 L158.390249,63.6258776 L152.697481,73.62584 L147.761833,82.3125364 L144.956655,89.6099357 L144.956655,91.8791743 C143.296729,91.5183363 141.535517,91.0499203 139.673019,90.4739265 C137.81052,89.8979326 139.861502,90.83441 145.825962,93.2833587 C147.110163,95.2020386 147.110163,96.4291714 145.825962,96.964757 C144.541762,97.5003427 144.890017,98.4380607 146.870727,99.7779111 L145.825962,106.850407 L143.041519,108.466203 L137.465721,106.061916 L128.441936,103.858606 L125.738309,103.858606 L123.053292,98.8798923 L123.053292,91.8791743 L130.239568,85.3798367 L134.654162,77.9128295 L135.448502,71.9776114 L135.448502,60.7622133 L137.465721,47.6720881 L140.659031,44.0502386 L144.956655,40.5759323 L148.86083,35.8718346" id="Path-170"></path>
                    <path d="M131.964891,46.1748585 C136.149974,46.1748585 137.983584,46.673935 137.465721,47.6720881" id="Path-171"></path>
                    <path d="M132.913952,69.4361493 L127.151532,74.2691809 L120.718655,82.1790831 L116.18071,90.1937276 L109.028993,97.2460193 L101.766685,105.510025 L92.7354556,113.53105 L85.1855052,119.74434 L81.3791605,124.415207 C80.5185371,126.193522 80.5185371,127.601073 81.3791605,128.637862 C82.239784,129.674651 83.970424,131.009185 86.5710806,132.641463 L92.7354556,133.622425 L97.9380095,135.565208 L98.7679723,139.082315 C100.128381,140.36687 100.808586,140.36687 100.808586,139.082315 C100.808586,137.155482 101.766685,136.654634 101.766685,136.654634 C101.766685,136.654634 101.766685,138.306938 101.766685,141.611548 C102.123978,143.297704 102.597357,143.297704 103.18682,141.611548 C103.776283,139.925393 103.776283,140.842375 103.18682,144.362495 C104.134995,145.348596 104.609082,145.348596 104.609082,144.362495 C104.609082,143.376393 105.347329,143.376393 106.823823,144.362495 C105.853494,145.220992 105.853494,145.976695 106.823823,146.629607 C107.794151,147.282518 109.319294,147.282518 111.399252,146.629607 L112.574811,140.825184 L109.986561,133.622425 L107.93106,126.49676 C108.024637,124.028316 108.390614,122.285802 109.028993,121.269217 C109.986561,119.74434 110.637345,119.191386 116.18071,112.350705 C119.876287,107.790252 122.051771,105.510025 122.707164,105.510025" id="Path-172"></path>
                    <path d="M107.119174,46.9234733 L101.391846,54.357516 L93.9843876,64.7323294 L91.2483281,71.796838 L91.2483281,77.9766318 L93.9843876,82.4385462 C95.5180247,82.3609199 96.9748462,82.8901254 98.3548518,84.0261625 C99.7348574,85.1621996 101.481448,86.8301007 103.594624,89.0298655 C104.47616,89.4094898 106.312074,89.9502151 109.102366,90.6520415 C111.892657,91.3538679 113.974742,91.3538679 115.34862,90.6520415" id="Path-173"></path>
                    <polyline id="Path-174" points="105.517734 100.772697 92.9114439 97.3050365 80.733693 91.1784113 73.1199402 83.2626605 67.7286376 75.7121784 61.1729412 72.0924557 56.5563061 64.7323294 46.6632127 56.1104868 40.0740201 52.8661349 19.5604859 51.2657581"></polyline>
                    <polyline id="Path-175" points="67.3149854 51.2657581 67.3149854 63.8879991 68.2555391 72.7533422"></polyline>
                    <path d="M168.774008,56.7616867 C175.197493,64.029015 180.454871,71.8970543 184.54614,80.3658046 L183.625383,81.8728517 L179.911291,80.3658046 L186.206832,92.4931794" id="Path-176"></path>
                    <path d="M185.721294,92.7090295 L191.565331,80.5705613 L186.997597,81.6516194 C186.683652,78.2544932 185.788779,74.58533 184.312979,70.6441297 C182.837178,66.7029295 179.567195,60.8977198 174.503029,53.2285007 L169.060575,56.9775368" id="Path-177"></path>
                    <path d="" id="Path-326"></path>
                    <polygon id="Path-327" fill="#D8D8D8" points="174.503029 53.2285007 182.52604 66.8520391 185.59287 74.6274331 186.997597 81.6516194 191.565331 80.5705613 186.206832 92.4931794 179.911291 80.3658046 184.625856 82.0595584 182.108992 75.7435299 175.003029 64.7323294 169.060575 56.9775368 171.452695 55.2267278 173.402729 53.7285007"></polygon>
                </g>
            </g>
        </g>
    </g>
</svg>