<?xml version="1.0" encoding="UTF-8"?>
<svg width="132px" height="163px" viewBox="0 0 132 163" version="1.1" xmlns="http://www.w3.org/2000/svg" xmlns:xlink="http://www.w3.org/1999/xlink">
    <!-- Generator: Sketch 62 (91390) - https://sketch.com -->
    <title>Group 5</title>
    <desc>Created with Sketch.</desc>
    <g id="Page-1" stroke="none" stroke-width="1" fill="none" fill-rule="evenodd">
        <g id="Group-5" transform="translate(0.520011, 0.511568)" stroke="#979797">
            <path d="M28.9255433,2.77727136 C22.6979344,4.10826557 16.6802219,6.56734431 10.872406,10.1545076 L4.03141026,17.8374183 L1.57466046,26.553509 L0,35.0154531 L4.03141026,37.7071356 L6.382484,37.7071356 L6.382484,23.1779889 L7.98072507,39.8922717 L14.4627716,39.8922717 L26.671412,39.8922717 L38.5394436,41.7306856 L50.3009259,43.1027276 L55.8292679,44.2948582 L52.7873697,35.0154531 L46.7690751,28.3587354 L51.5079035,30.3089388 L45.261663,19.7151333 L54.2074462,33.2687415 L55.8292679,23.5360648 L55.8292679,14.5099328 L54.2074462,6.23139345 L51.5079035,8.52651283e-14 L42.0450937,1.29081984 C39.5263357,0.95079332 35.1531522,1.44627716 28.9255433,2.77727136 Z" id="Path-4"></path>
            <polyline id="Path-5" points="51.5079035 -7.10542736e-15 55.8292679 -7.10542736e-15 64.681602 2.09780057 76.0832617 5.35629097 85.1539348 9.70996951 92.9835693 16.2356839 98.9721698 24.4740489 105.960763 34.1752848 113.3642 44.2948582 120.582485 50.396995 127.816491 56.8100464 130.766687 63.4117428 130.766687 72.0666985 124.974591 77.5784468 117.946697 80.3190372 110.882996 79.1522339 116.193872 75.460559 120.582485 70.8649609 121.927453 63.4117428 120.582485 52.7113878 116.193872 48.7863912 116.193872 58.8903799 116.193872 66.3173974 114.955454 72.0666985 109.34327 79.1522339 104.838501 79.1522339 108.06293 69.6562365 111.542447 61.22457 113.3642 56.8100464 113.3642 46.0048888"></polyline>
            <polyline id="Path-6" points="9.41564861 40.1595186 13.6819916 51.8528791 18.4688546 62.1820578 24.2408629 71.7313299 30.7901578 80.3190372 27.914634 86.980995 26.1683591 98.1119144 26.1683591 109.838462 30.7901578 124.788567 32.0865603 137.63825 32.0865603 148.864365 34.2844543 152.580494 42.3568817 152.580494 55.8292679 152.580494 55.8292679 154.046858 55.8292679 159.5752 60.0091487 161.160341 68.078956 159.5752 78.4020213 159.5752 91.1372952 156.82937 94.0612903 154.433755 91.1372952 151.065222 84.8849412 151.065222 76.1339163 146.398882 68.078956 137.63825 65.8842129 126.46541 65.8842129 109.838462 65.8842129 94.1442591 64.2947054 78.1557349 61.4816265 62.1820578 55.8292679 44.2948582 27.914634 40.1595186 12.0042751 38.5237232 17.0199573 48.7863912 24.2408629 60.7191869 34.2844543 71.7313299 42.3568817 80.3190372 47.2773682 86.980995 45.9778148 99.8420322 44.1289206 113.307432 44.1289206 124.788567 45.9778148 133.662735 51.5079035 139.062693 55.8292679 141.046084"></polyline>
            <polyline id="Path-7" points="46.1105648 106.049845 49.5804073 116.488432 51.7384695 126.310826 55.8292679 137.738686 55.8292679 141.046084"></polyline>
            <polyline id="Path-8" points="104.838501 79.1522339 102.848123 84.8054658 101.32761 92.7826975 99.3398526 104.884788 95.6516712 117.627049 94.0612903 131.045287 95.6516712 144.819855 91.1372952 151.065222"></polyline>
            <polyline id="Path-9" points="88.6036901 151.065222 87.4735677 145.811113 83.6072217 143.276635 81.0919571 143.276635 81.0919571 135.619925 87.4735677 127.878499 87.4735677 110.507453 86.3216114 97.1686902 88.6036901 86.3338384 94.0612903 74.0596964 95.6123702 56.4135429 108.06293 69.6562365"></polyline>
            <polyline id="Path-10" points="95.6123702 56.4135429 91.1372952 53.7367075 93.3748327 46.0974645"></polyline>
            <polyline id="Path-11" points="88.7408069 48.7863912 93.3748327 60.437093 71.3060056 60.437093 57.8572 48.7863912"></polyline>
            <polyline id="Path-12" points="65.5706782 87.0945313 69.1601705 74.7243201 71.3060056 60.437093"></polyline>
            <polyline id="Path-13" points="74.4955009 60.437093 83.7076576 69.6606033 91.1372952 60.437093"></polyline>
            <polyline id="Path-14" points="83.7076576 69.6606033 82.816398 79.1522339 79.1915349 87.0945313 76.911203 106.049845 73.0335033 116.488432 71.3060056 135.4208 71.3060056 141.046084"></polyline>
        </g>
    </g>
</svg>