<?xml version="1.0" encoding="UTF-8"?>
<svg width="166px" height="235px" viewBox="0 0 166 235" version="1.1" xmlns="http://www.w3.org/2000/svg" xmlns:xlink="http://www.w3.org/1999/xlink">
    <!-- Generator: Sketch 62 (91390) - https://sketch.com -->
    <title>Group 26</title>
    <desc>Created with Sketch.</desc>
    <g id="Page-1" stroke="none" stroke-width="1" fill="none" fill-rule="evenodd">
        <g id="Group-26" transform="translate(1.175317, 0.716688)" stroke="#979797">
            <g id="Group-16">
                <g id="Group-14">
                    <g id="Group-13">
                        <g id="Group">
                            <path d="M20.5439981,-7.10542736e-15 C16.4438139,5.1017631 13.2076415,10.1556668 10.8354812,15.1617112 L4.74069392,22.7713517 C2.74216042,25.564767 1.27516654,29.2390722 0.339712293,33.7942674 C-0.595741957,38.3494626 0.400750336,41.4469121 3.32918917,43.0866159 L10.8354812,45.6314861 L20.5439981,48.9719317 L26.6831768,48.9719317 L24.1057067,43.0866159 C21.7312343,36.8917169 20.5439981,33.7942674 20.5439981,33.7942674" id="Path-3"></path>
                            <path d="M20.5439981,3.55271368e-15 C23.3133681,3.55271368e-15 26.2970649,1.23185869 29.4950884,3.69557606 L25.0195433,8.97744762 L20.5439981,15.8442275 L18.6858059,20.3887872 L18.0349089,22.2268979 L16.4398834,26.7311948 L14.2869051,32.7871397 L20.5439981,33.7942674 L25.0195433,31.2868524 L25.0195433,26.7311948" id="Path-85"></path>
                            <path d="M28.1723663,2.56984033 C34.1531697,1.80963925 39.5245175,1.80963925 44.2864097,2.56984033 L48.7290081,8.6278661 L51.7420679,15.9663036 L52.8643355,19.1735753 L45.3018607,19.1735753 L37.9939423,20.9575508 C34.2026475,21.8851441 31.3696962,22.3489407 29.4950884,22.3489407 C27.6204807,22.3489407 26.1023905,18.4815796 24.9408181,10.7468573" id="Path-86"></path>
                            <polyline id="Path-87" points="18.8127373 22.3489407 25.0195433 26.7311948 38.9025768 25.4639618 52.8643355 22.3489407 47.4208519 26.7311948 40.5492168 30.3282776 24.9408181 31.770995"></polyline>
                            <path d="M52.8643355,24.4859659 C59.7842925,25.4306683 66.0931753,27.8590113 71.7909842,31.770995 L77.9572138,39.4992436 L83.6101689,48.9719317 L89.8194025,58.6748997 C90.30447,62.5309318 91.4137902,65.8408584 93.1473631,68.6046795 C94.880936,71.3685006 96.8101081,73.8719852 98.9348794,76.1151333 L98.9348794,84.5168812 L93.1473631,85.7043486 L83.6101689,86.6226937 L74.3025609,90.3342228 L67.322722,97.1330285 L62.1740243,95.1735686 L56.0729945,88.0182453 L49.7888505,78.3131964 C46.1145453,74.1926661 44.2773927,70.9564938 44.2773927,68.6046795 C44.2773927,66.2528652 43.2434452,62.3360263 41.1755503,56.8541626 C39.8405743,55.1857894 38.421671,54.3516029 36.9188404,54.3516029 C34.6645945,54.3516029 30.6367773,55.5910913 29.4950884,54.3516029 C28.7339625,53.5252772 27.7966586,51.7320535 26.6831768,48.9719317" id="Path-88"></path>
                            <path d="M98.9348794,84.5168812 C105.291853,95.7867235 107.566214,95.6181752 107.566214,104.676082 C107.566214,110.714687 107.566214,118.870895 107.566214,129.144708 L101.833493,130.376566 L94.6719269,132.249324 L87.701105,134.455017 L77.0575962,132.249324 L74.640351,121.684888 L70.9739067,112.702585 L67.7520691,104.676082 L67.322722,97.1330285" id="Path-89"></path>
                            <path d="M70.9739067,112.702585 C67.1155626,116.063376 65.898501,118.202714 67.322722,119.120596 L74.5730704,125.236886" id="Path-90"></path>
                            <path d="M66.7467503,117.238821 C62.2037591,120.168647 58.081701,123.281587 54.380576,126.577642 L47.9736623,133.139925 L47.0560109,140.365303 L47.9736623,156.442585 L47.9736623,172.595471 C48.58543,178.511075 48.58543,183.637808 47.9736623,187.97567 C47.3618947,192.313533 45.5936411,195.178622 42.6689015,196.570937 L35.3589023,197.614132 L30.9606951,199.357878 L29.0199628,203.490431 L36.2474219,205.911145 L47.0560109,205.911145 L56.8380509,207.491198 C59.4488144,208.051638 61.1578796,207.524953 61.9652465,205.911145 C63.1762967,203.490431 61.9652465,203.790073 61.9652465,195.065794 C61.9652465,189.249608 62.688686,182.457045 64.1355651,174.688105 L66.7467503,164.740291 C66.7467503,161.213957 66.7467503,158.448055 66.7467503,156.442585 C66.7467503,154.437115 65.1529157,151.009968 61.9652465,146.161143 L68.4831384,143.265304 L78.138247,140.365303 C79.0764758,139.61805 80.3113401,138.693462 81.8428401,137.59154 C83.3743401,136.489619 84.4004266,137.858582 84.9210996,141.69843 L87.4444678,147.501205 L92.4398767,154.224407 C94.5799075,158.212415 96.8415519,160.962064 99.2248101,162.473355 C102.799697,164.740291 104.775804,166.622066 107.566214,170.076264 C109.426487,172.379063 111.538542,175.511425 113.902379,179.473349 C114.850318,181.341483 116.758682,184.83198 119.62747,189.944841 C123.930652,197.614132 125.575211,200.208943 129.127209,207.491198 C131.495207,212.346034 131.996228,216.338477 130.63027,219.468526 L124.178272,221.088809 L113.902379,222.478812 L110.854638,224.149728 C110.056057,225.781571 110.056057,226.976668 110.854638,227.735019 C111.653219,228.493371 114.577496,229.767309 119.62747,231.556833 C122.248406,232.286515 125.414986,232.651356 129.127209,232.651356 C134.695543,232.651356 136.59882,233.745879 143.729173,232.651356 C150.859526,231.556833 151.511524,232.37183 151.511524,229.331719 C151.511524,227.304979 150.585086,224.017248 148.732212,219.468526 C147.484169,214.150818 146.338318,210.158375 145.29466,207.491198 C144.251002,204.82402 142.90724,200.31784 141.263375,193.972658 L139.243571,185.334388 C137.528032,182.41381 136.038611,179.560513 134.775308,176.774496 C132.880355,172.595471 131.894035,171.247984 128.036154,166.860669 C124.178272,162.473355 126.43876,161.774397 123.033115,156.442585 C120.762685,152.888044 118.770625,149.073397 117.056936,144.998646 C117.578071,144.047469 116.526552,141.578434 113.902379,137.59154 C111.278205,133.604646 109.16615,130.295182 107.566214,127.663148" id="Path-91"></path>
                            <path d="M124.191451,44.1228754 C124.191451,63.9130736 124.191451,94.8404026 124.191451,136.904862 L164.247666,143.97071" id="Path-92"></path>
                            <line x1="117.301781" y1="141.404337" x2="124.191451" y2="136.904862" id="Path-93"></line>
                            <line x1="92.6632204" y1="156.172076" x2="66.7467503" y2="170.838546" id="Path-94"></line>
                            <line x1="8.61799688" y1="202.957736" x2="47.7045401" y2="180.230775" id="Path-95"></line>
                            <line x1="71.3338177" y1="105.737837" x2="87.4444678" y2="100.588823" id="Path-96"></line>
                            <line x1="85.3246832" y1="118.783312" x2="71.3246832" y2="105.783312" id="Path-97"></line>
                            <line x1="87.4444678" y1="101.082882" x2="82.2792704" y2="106.602619" id="Path-98"></line>
                            <line x1="81.2536146" y1="110.649831" x2="84.8618691" y2="118.497224" id="Path-99"></line>
                            <line x1="82.2792704" y1="107.340133" x2="104.546977" y2="108.374727" id="Path-100"></line>
                            <polyline id="Path-101" points="81.2536146 110.649831 100.414324 115.096365 104.546977 108.374727"></polyline>
                        </g>
                    </g>
                </g>
                <polygon id="Path-322" fill="#D8D8D8" points="71.3338177 105.737837 87.4444678 100.588823 82.5 107.340133 104.546977 108.374727 100.414324 115.096365 81.2536146 110.649831 84.8618691 118.783312"></polygon>
            </g>
        </g>
    </g>
</svg>