<?xml version="1.0" encoding="UTF-8"?>
<svg width="128px" height="177px" viewBox="0 0 128 177" version="1.1" xmlns="http://www.w3.org/2000/svg" xmlns:xlink="http://www.w3.org/1999/xlink">
    <!-- Generator: Sketch 62 (91390) - https://sketch.com -->
    <title>Group 4</title>
    <desc>Created with Sketch.</desc>
    <g id="Page-1" stroke="none" stroke-width="1" fill="none" fill-rule="evenodd">
        <g id="Group-4" transform="translate(1.468573, 0.885553)" stroke="#979797">
            <path d="M26.1777,76.4306409 C25.7549579,83.1070681 24.4138971,90.0818465 22.1545179,97.3549761 L16.6547777,107.573389 L12.031152,120.700025 C10.8274591,125.712606 9.67590749,129.682828 8.57649723,132.610692 C7.47708698,135.538556 6.0980309,138.414161 4.43932899,141.237509 L3.51516501,146.787052 L14.3434909,141.237509 L22.1545179,133.909081 L25.1872488,127.900788 L31.2712991,118.780499 L34.9441056,108.287117 L39.5038991,98.5667357 L43.6891169,89.9546497 L41.5889674,82.3312614 L40.5205243,77.3147112 L40.1506386,75.5780251 L36.5283366,72.77502" id="Path-178"></path>
            <path d="M22.1545179,97.3549761 C19.7352074,94.7652126 18.2046375,91.3621146 17.5628082,87.1456822 C17.527268,84.3335582 18.0517208,82.1564827 19.1361667,80.6144558 C20.2206127,79.0724289 22.2375231,76.9190859 25.186898,74.1544268 L29.5765893,78.6531939 L36.3736663,80.6144558 L40.7868562,80.0624125" id="Path-179"></path>
            <polyline id="Path-180" points="25.7266659 74.1544268 27.1229076 68.5557818 27.1229076 59.7469383 29.8378804 53.8137003 32.3220753 50.1612359 38.6923183 50.7017053 41.6682315 52.6159698 41.6682315 57.3511265 43.0890241 62.1578314 44.9871552 70.8751353"></polyline>
            <path d="M31.4975176,50.6561108 C28.0847162,49.2115858 25.8504723,47.0317046 24.794786,44.116467 L23.0716673,39.8267328 L20.3061899,37.2727434 L20.3061899,31.7698466 L21.2121161,28.3912995 L19.8137701,23.4997189 C20.5935517,23.0007522 21.33148,22.7512688 22.0275549,22.7512688 C22.7236298,22.7512688 23.9566669,23.3360466 25.7266659,24.5056021 L35.8402115,27.7259716 L47.0455682,30.0362062 L57.0016377,31.7698466 L61.3474881,30.5075824 L64.2311603,36.7036898 L60.4605011,44.5962607 L55.1164834,51.503115 L47.0455682,57.2662507 L42.0224652,53.833341" id="Path-181"></path>
            <path d="M19.8137701,22.7512688 C17.9931495,21.6259048 17.386276,20.406663 17.9931495,19.0935435 C18.4533097,18.0978742 19.1772904,17.3548677 20.1650915,16.8645239 C20.3750526,16.7602993 20.7168125,16.6296465 21.1903711,16.4725653 L27.4617093,19.6119171 L37.576307,23.4309765 L48.9163427,24.9492709 L58.6048079,24.9492709 L56.7933062,15.0296771 L53.6283514,7.65460299 L46.7828742,2.1334685 L38.1851899,-1.42108547e-14 L28.9123135,1.50531757 L23.2992887,7.65460299 L20.4275412,12.4746355" id="Path-182"></path>
            <line x1="20.4275412" y1="12.4746355" x2="19.8137701" y2="17.1150961" id="Path-183"></line>
            <path d="M64.2311603,36.7036898 L81.2029488,44.6652456 L97.6762463,56.0859988 C101.997029,58.5747415 105.032522,61.5555091 106.782725,65.0283017 C108.532928,68.5010944 111.871669,75.9241447 116.798948,87.2974526 L120.109573,94.4315638 L120.109573,103.82422 L109.763493,103.82422 L96.3628408,90.0274382 L85.4436518,81.2899783 L79.3314966,80.0917971 L73.0016957,81.2899783 L67.8459768,87.2974526 L53.3985169,88.9685803 L53.3985169,70.263955 L53.3985169,94.4315638 L51.0006482,97.3549761 L44.9871552,90.0274382" id="Path-184"></path>
            <path d="M120.109573,105.600782 C120.379685,108.492182 121.083833,111.539975 122.222017,114.744162 C123.360201,117.948349 124.515456,122.522927 125.687781,128.467894 L122.898677,136.302387 L117.079101,144.40875 L112.222362,148.914544 L99.4226839,148.914544 L104.76969,141.455847 L110.041386,130.042625 L111.175554,121.861705 L111.175554,109.781036 L114.481661,111.222669 L110.041386,105.600782" id="Path-185"></path>
            <path d="M67.5424778,89.0280752 C66.1708326,89.8916292 65.4850101,91.9460845 65.4850101,95.1914411 C65.4850101,98.4367977 66.6462894,103.299996 68.9688481,109.781036 L73.1575873,121.010703 L75.5750366,135.012328 L75.5750366,146.787052 L73.1575873,156.578837 L68.9688481,160.587585 L62.6028984,164.64152 L56.8251194,168.427351 L50.7882742,170.139899 L49.8002077,173.761554 L53.0294982,174.878401 L56.8251194,171.139262 L54.9996063,174.878401 L58.2251313,174.878401 L60.1944864,171.139262 L60.1944864,174.878401 L62.6028984,174.878401 L62.6876221,172.561867 L64.0556273,174.878401 L67.5424778,173.761554 L73.1575873,174.878401 L80.8783629,173.761554 L90.2122776,172.561867 L92.5461328,168.427351 L91.2952346,156.578837 L91.2952346,141.104903 L95.2121049,129.269945 L98.2440833,121.010703 L95.2121049,112.405788 L90.2122776,103.82422" id="Path-186"></path>
            <polyline id="Path-187" points="3.51516501 146.787052 2.27373675e-13 150.489275 2.27373675e-13 160.317223 1.75758251 164.101548 3.51516501 160.317223 3.51516501 168.277484"></polyline>
            <polyline id="Path-188" points="4.51106574 168.277484 7.36757197 168.277484 5.93931886 165.356211 8.50550525 160.943801 8.50550525 169.416923 11.8146243 165.356211 13.8223874 159.751645 21.1884532 150.238493 40.7868562 138.768035 56.4274829 128.317274 65.3856009 119.701816 68.9688481 109.781036"></polyline>
            <polyline id="Path-189" points="39.3509528 101.711023 42.6307009 107.784017 44.9871552 111.523909 48.5666308 109.781036 51.2559489 98.4169661"></polyline>
            <polyline id="Path-190" points="31.8139334 120.301283 35.3569105 123.480869 44.9871552 112.793635"></polyline>
            <line x1="35.3569105" y1="123.480869" x2="21.5634967" y2="135.240517" id="Path-191"></line>
            <polyline id="Path-192" points="17.5611166 156.269313 25.7266659 156.269313 33.4888266 152.75761 40.7868562 146.787052 40.7868562 139.59898"></polyline>
            <path d="M14.2335797,162.645806 L25.7266659,163.969755 C27.4228595,163.969755 29.4519486,163.969755 31.8139334,163.969755 C35.3569105,163.969755 38.5360991,161.387377 41.919775,161.387377 C45.3034508,161.387377 45.4503052,162.711326 49.8002077,162.678566 C52.7001427,162.656726 56.1415561,162.22633 60.1244481,161.387377 L61.1810467,156.269313 L58.3712326,148.914544 L52.9941025,131.953238" id="Path-193"></path>
            <path d="M64.5971058,121.524317 C65.6880959,125.346547 66.3676426,128.822855 66.635746,131.953238 L66.635746,135.240517 L57.2137187,129.360693" id="Path-194"></path>
            <path d="M66.635746,135.240517 C68.1911474,140.221517 69.6220364,144.070362 70.9284129,146.787052 L75.5750366,146.787052" id="Path-195"></path>
            <line x1="92.4022908" y1="148.914544" x2="112.222362" y2="148.914544" id="Path-196"></line>
        </g>
    </g>
</svg>