<?xml version="1.0" encoding="UTF-8"?>
<svg width="223px" height="139px" viewBox="0 0 223 139" version="1.1" xmlns="http://www.w3.org/2000/svg" xmlns:xlink="http://www.w3.org/1999/xlink">
    <!-- Generator: Sketch 62 (91390) - https://sketch.com -->
    <title>Group 8</title>
    <desc>Created with Sketch.</desc>
    <g id="Page-1" stroke="none" stroke-width="1" fill="none" fill-rule="evenodd">
        <g id="Group-8" transform="translate(0.790560, 0.507063)" stroke="#979797">
            <path d="M110.322519,3.37297549 C104.913776,10.3425933 99.9683432,16.2210365 95.4862199,21.0083052 L87.7361647,26.0683676 L75.0710312,29.3311073 L60.1376765,38.2446293 L47.8224218,49.729521 L37.0121252,62.4377903 L29.9127008,71.3896552 L29.9127008,79.9101628 L24.58304,85.7670381 L20.249096,91.4753348 L16.834183,96.2897631 L6.07181506,101.78957 L2.16323742,110.69111 L-7.10542736e-15,121.669157 L6.07181506,130.40774 L16.834183,133.418854 L34.5893343,130.40774 L55.1612596,127.226479 L75.0710312,123.616256 L93.4169025,121.669157 L104.599844,123.616256 C108.414961,123.81818 110.322519,123.169147 110.322519,121.669157 C110.322519,120.169167 110.322519,117.966448 110.322519,115.061001 L104.599844,110.69111 L97.536366,110.69111 L87.7361647,108.226382 L80.919519,104.431635 L77.0744468,104.431635 L72.853135,108.226382 L64.6597402,110.69111 L52.7027518,108.226382 L41.6336408,106.389518 L27.2251043,110.69111" id="Path-51"></path>
            <path d="M110.322519,3.37297549 L118.681268,-5.68434189e-14 L129.863011,3.37297549 L137.089446,9.59291003 L140.816012,21.3593822 L139.144385,26.4877428 L137.089446,31.8773143 L137.089446,39.5291159 C135.719487,42.1963427 135.719487,44.0539755 137.089446,45.1020143" id="Path-52"></path>
            <polyline id="Path-53" points="136.275858 42.6612502 140.816012 51.1530005 144.390171 58.6082948 149.084777 68.3959148 158.553073 77.3004503 169.194421 90.9648952 181.078319 105.271583 169.194421 100.821413 154.86976 90.9648952 139.249828 82.2586643"></polyline>
            <path d="M142.917511,57.7352002 C138.858586,58.175364 135.222242,59.1531417 132.00848,60.6685332 C128.794718,62.1839247 126.983698,63.6777103 126.575422,65.14989 L129.122531,70.2436617 L139.938135,82.9899368" id="Path-54"></path>
            <path d="M136.275858,79.6216551 C131.093631,77.4968289 126.96999,74.9449514 123.904935,71.9660225 L116.86887,66.1047207 L114.532306,63.4798302 L127.373349,63.4798302" id="Path-55"></path>
            <path d="M137.089446,39.5291159 C133.881241,40.4976083 131.203996,42.3552411 129.057713,45.1020143 L125.404082,47.5744779 L118.698068,45.1020143 L108.224433,46.9169142" id="Path-56"></path>
            <path d="M108.224433,46.9169142 C109.096127,47.2268468 109.795489,49.3986099 110.322519,53.4322036 C110.849549,57.4657972 112.252811,60.8150061 114.532306,63.4798302" id="Path-57"></path>
            <path d="M93.6708635,22.5510072 C95.7760209,23.7203016 97.1435984,25.6834037 97.773596,28.4403136 C98.4035935,31.1972234 98.8947174,33.8832064 99.2469677,36.4982625 L103.457432,41.0055464 L108.862775,46.9169142" id="Path-58"></path>
            <path d="M102.023397,14.5679998 C106.582982,16.841832 110.752619,18.8847049 114.532306,20.6966184 L122.65694,21.6594955 L140.816012,21.6594955" id="Path-59"></path>
            <path d="M138.754431,27.1354677 C137.240827,27.1354677 133.573341,27.1354677 127.751973,27.1354677 C121.930605,27.1354677 115.89288,26.6380855 109.638798,25.6433211 L103.362664,22.5510072 L98.3739413,18.1137476" id="Path-60"></path>
            <polyline id="Path-61" points="111.378369 58.8759904 103.118145 61.2375873 95.0485734 62.636307 88.3437484 64.7967457 83.6791141 63.4798302 79.3193462 58.8759904"></polyline>
            <path d="M89.0933978,64.7967457 L98.8039728,73.9664168 L111.378369,83.7820529 L128.214637,96.008446 L139.725801,102.007876 L153.482337,107.887059 L163.261306,111.568253 L168.729232,117.491691 L173.497127,121.666393 L176.636536,128.846845 L179.259638,124.766911 L184.728011,131.380544 C186.832274,132.937657 187.635864,132.330011 187.13878,129.557604 C186.641696,126.785198 186.169048,124.154794 185.720838,121.666393 L188.297004,132.328223 L191.018003,131.380544 L189.277762,121.003018" id="Path-62"></path>
            <path d="" id="Path-63"></path>
            <path d="M181.809429,105.271583 L186.198254,106.974248 C187.328315,106.913155 188.934899,107.666977 191.018003,109.235713 C193.101108,110.804448 194.660605,112.17888 195.696495,113.359008 L200.42103,107.888847 C203.352575,102.884032 205.506606,99.7752443 206.883124,98.5624841 C208.259642,97.3497239 210.019999,97.1127298 212.164196,97.8515018 L213.51285,100.789752 L210.801685,103.782091 L215.793536,100.789752 L220.009811,105.980527 C221.735301,106.319962 221.735301,107.955453 220.009811,110.886998 C218.284321,113.818543 216.553914,116.662601 214.81859,119.419172 L212.164196,127.993041 L208.975169,135.28793 L204.125022,137.730437 L198.692857,136.095691 L194.806035,131.880544 L193.161455,119.419172 L191.518003,115.583817 L195.696495,112.228499" id="Path-64"></path>
            <polyline id="Path-65" points="175.825645 127.723489 166.379257 128.93759 154.90609 127.723489 144.87545 124.748583 132.853344 119.419172 122.864277 120.1662 110.322519 120.1662"></polyline>
            <polyline id="Path-66" points="122.33456 92.3451324 109.666066 89.0935224 97.9443569 87.3362941 92.2395114 86.5562475 104.533404 78.9073202"></polyline>
            <path d="M91.0504432,86.7122568 C89.7457462,91.1091272 88.0020775,95.059203 85.8194369,98.5624841 L80.02787,104.283199" id="Path-67"></path>
            <path d="M91.0504432,86.7122568 L81.4945365,87.5848362 L71.0280538,89.7957879 L62.5628714,91.5865426 L55.1612596,88.4055615 L49.7669772,86.7122568 C49.341714,85.189117 48.1553278,83.9580291 46.2078188,83.018993 C44.2603098,82.0799569 42.2292084,81.7399251 40.1145146,81.9988976 L36.4976908,79.5523673 L30.3207942,78.9073202" id="Path-68"></path>
            <path d="M17.5852475,95.4977278 C26.668209,93.7746964 31.2729429,92.0854148 35.2746492,94.2489826 C37.9424535,95.6913611 40.8503064,97.7109891 43.9982082,100.307866 L49.1983701,107.242459" id="Path-69"></path>
        </g>
    </g>
</svg>