<?xml version="1.0" encoding="UTF-8"?>
<svg width="407px" height="73px" viewBox="0 0 407 73" version="1.1" xmlns="http://www.w3.org/2000/svg" xmlns:xlink="http://www.w3.org/1999/xlink">
    <!-- Generator: Sketch 62 (91390) - https://sketch.com -->
    <title>Group 27</title>
    <desc>Created with Sketch.</desc>
    <g id="Page-1" stroke="none" stroke-width="1" fill="none" fill-rule="evenodd">
        <g id="Group-27" transform="translate(1.157138, 1.111611)" stroke="#979797">
            <g id="Group-10">
                <path d="M78.7371857,31.3671015 L73.2298504,31.3671015 L66.8087253,34.4497581 L56.0535561,38.9904196 L42.7052166,44.7627908 L35.9938434,46.1488487 L28.6564689,48.4782129 L21.1358446,50.4712091 L16.9180226,53.2925194 L12.059441,54.6293826 L7.54706644,56.0935369 L9.13851172,58.9671164 L3.66007817,62.5982927 L2.25680223,64.5119627 L3.66007817,66.17597 L2.13162821e-13,68.2944124 L2.25680223,70.6944939 L9.13851172,68.2944124 C7.54747639,67.0485592 10.1406467,65.7877426 16.9180226,64.5119627 C23.6953986,63.2361827 32.2911299,61.8812815 42.7052166,60.4472589 L61.0904681,56.0935369 L75.4718942,53.2925194 L91.1532876,53.2925194 L97.9021717,53.2925194 L106.300305,46.1488487 C108.176259,44.5537138 108.645247,43.1986076 107.70727,42.08353 C106.769293,40.9684524 104.762973,39.9374156 101.688311,38.9904196 L94.0846708,37.4118879 L82.9685362,37.4118879 L78.7371857,37.4118879 L66.8087253,38.9904196 L56.0535561,42.08353 L43.9141738,46.1488487 L35.9938434,50.4712091 L26.5085097,53.2925194 L18.107917,53.2925194" id="Path-144"></path>
                <path d="M79.6128496,37.638183 L79.6128496,31.3671015 C78.6859414,30.0212193 79.8787054,28.2674318 83.1911418,26.1057391 C86.5035781,23.9440465 89.8629543,21.9961453 93.2692703,20.2620357 L96.2154119,20.2620357 C97.4444569,19.3658741 99.4247445,18.4406057 102.156275,17.4862304 C104.887805,16.5318552 106.894466,16.2038912 108.176259,16.5023384 C110.760752,16.5433339 112.471767,16.8712979 113.309305,17.4862304 C114.565612,18.4086292 116.922034,17.2525561 118.467359,20.2620357 C119.497576,22.2683554 121.018099,24.2162566 123.028928,26.1057391 L115.63621,31.3671015 L109.984365,34.8014995 L104.674423,37.638183 L101.168892,37.638183 L98.8866786,37.638183" id="Path-145"></path>
                <polyline id="Path-146" points="94.510819 20.99688 97.59901 25.3881129 100.24445 32.9886785 100.24445 37.638183 97.3776343 36.2195338 95.3391331 29.3175315 92.0916746 25.3881129 89.8164244 22.6116927"></polyline>
                <path d="M123.028928,26.1057391 C126.538348,22.2328943 126.926985,20.7306142 131.040884,17.8693334 C133.783482,15.9618128 137.367309,13.9411446 141.792363,11.8073289 L149.617994,10.439719 L159.196182,10.439719 L172.69764,10.439719 L183.139194,10.439719 C186.031016,11.3211223 188.348697,12.280212 190.092235,13.3169882 C192.707543,14.8721524 196.526274,15.932911 197.847149,18.2727291 C198.727732,19.8326078 199.067995,22.4436112 198.867937,26.1057391 L197.847149,30.5148051 L196.268002,37.638183 L197.847149,43.1645813 L201.735982,48.5612288 L198.867937,51.0307977 L192.46157,51.0307977 L180.625965,52.8159467 L166.034847,54.2770263 L152.604106,54.2770263 L135.90254,54.2770263 L123.028928,54.2770263 L110.75918,55.5659248 L101.168892,55.5659248 L97.9021717,53.2925194" id="Path-147"></path>
                <polyline id="Path-148" points="121.307732 34.6969609 127.991433 33.0028219 136.372348 33.0028219"></polyline>
                <path d="M199.361728,20.0000744 L210.223895,18.90242 C214.578847,18.2727291 218.248559,17.9578836 221.233032,17.9578836 C224.217504,17.9578836 229.496699,17.663126 237.070618,17.0736107 L249.420922,17.0736107 L253.167091,21.1290905 L251.468032,24.6157577 C249.632254,22.6266561 247.475891,22.6266561 244.998943,24.6157577 C242.521994,26.6048593 240.700359,29.0422467 239.534037,31.9279199 L242.028819,37.9690167 L247.24898,42.5121379 L253.167091,49.6127634 L249.420922,51.1992892 L240.73869,52.804263 L231.851071,52.804263 L221.233032,51.1992892 L210.223895,49.6127634 L201.735982,48.5612288" id="Path-149"></path>
                <path d="M250.928736,18.100548 L265.620089,19.2246446 L285.849523,19.2246446 L301.187784,20.3585801 L315.301099,25.0166937 L330.061324,26.6733218 L350.63389,26.6733218 L365.186268,25.0166937 L379.150769,20.3585801 L390.549773,18.100548 C392.957439,16.870683 394.709176,16.5632168 395.804986,17.1781493 C396.900796,17.7930817 398.517043,18.4752469 400.653729,19.2246446 L400.653729,21.7720024 C398.476048,22.6290133 396.441031,23.0575188 394.548679,23.0575188 C392.656327,23.0575188 389.787462,23.7105771 385.942084,25.0166937 L377.571008,28.3914432 L368.573316,30.2448497 L358.51179,32.0791933 L346.458499,32.0791933 L333.620553,32.0791933 C328.289908,31.408507 324.065117,30.7970591 320.94618,30.2448497 C317.827242,29.6926403 311.96714,28.502131 303.365875,26.6733218 L298.80984,24.4749382 L289.930215,25.0166937 L276.643368,24.4749382 L261.220862,24.4749382 L253.167091,23.0575188" id="Path-150"></path>
                <path d="M253.167091,49.6127634 L265.37596,49.6127634 L282.901536,48.268521 C289.284126,48.1102783 293.184642,47.7388591 294.603087,47.1542633 C296.021531,46.5696675 298.910074,46.2904881 303.268715,46.3167252 C308.407911,46.3353267 312.938939,46.6145061 316.861798,47.1542633 C322.746087,47.9638991 331.320706,49.6127634 335.480724,49.6127634 C338.254069,49.6127634 342.568436,49.063142 348.423823,47.9638991 L360.916176,46.3167252 L373.001445,46.3167252 L379.943417,48.268521 L384.123729,46.3167252 L387.644217,41.5614523 L394.385722,37.4893694 L400.653729,33.5162906 L401.508485,30.5836775 L404.491522,30.5836775 L404.491522,27.263657 L402.792464,26.0676133 L404.491522,23.4252484 L400.653729,21.7720024" id="Path-151"></path>
                <polygon id="Path-152" fill="#D8D8D8" points="317.937576 6.15998238 384.729128 4.34499457 381.955293 -5.59552404e-14 394.791922 6.15998238 381.955293 11.745284 384.729128 7.92008935 317.937576 9.78760596"></polygon>
                <polygon id="Path-153" fill="#D8D8D8" points="79.3088549 13.6367142 11.0057956 13.6367142 13.2873411 10.439719 -2.20126292e-15 16.3956943 13.2873411 23.2081564 11.0057956 18.5732493 79.3088549 16.3956943"></polygon>
            </g>
        </g>
    </g>
</svg>